<?xml version="1.0" standalone="no"?><!DOCTYPE svg PUBLIC "-//W3C//DTD SVG 1.1//EN" "http://www.w3.org/Graphics/SVG/1.1/DTD/svg11.dtd"><svg t="1508314935360" class="icon" style="" viewBox="0 0 1335 1024" version="1.1" xmlns="http://www.w3.org/2000/svg" p-id="3235" xmlns:xlink="http://www.w3.org/1999/xlink" width="26.07421875" height="20"><defs><style type="text/css"></style></defs><path d="M567.779 1024h651.92c1.004 0 2.003-0.022 3.004-0.038H564.774c1.001 0.016 2 0.038 3.005 0.038zM1179.291 837.98V186.02C1179.291 83.71 1095.582 0 993.271 0H341.35C239.039 0 155.33 83.709 155.33 186.02v651.96c0 101.307 82.077 184.362 183.016 185.982h657.929c100.939-1.622 183.016-84.677 183.016-185.983zM317.865 259.227c4.008-8.882 9.554-16.454 16.682-22.692 7.11-7.108 15.347-12.447 24.692-16.01 9.346-3.545 19.356-5.337 30.03-5.337 10.673 0 20.891 1.792 30.699 5.337 9.783 3.563 18.228 8.902 25.358 16.01 7.108 6.238 12.674 13.81 16.682 22.692 4.001 8.909 6.008 18.246 6.008 28.029 0 9.8-2 19.145-6.008 28.028-4.002 8.907-9.574 16.475-16.682 22.69-7.13 6.237-15.582 11.347-25.358 15.347-9.801 4.009-20.026 6.01-30.7 6.01-10.673 0-20.683-2.001-30.029-6.01-9.345-4-17.581-9.11-24.692-15.346-7.128-6.216-12.674-13.784-16.682-22.69-4-8.884-6.001-18.228-6.001-28.03 0-9.782 2-19.12 6-28.028z m150.817 313.636c-4.01 22.248-12.683 45.839-26.029 70.738v-0.007c-9.8 17.81-18.019 34.493-24.692 50.048a6485.777 6485.777 0 0 1-19.354 44.712 11301.363 11301.363 0 0 0-18.019 41.375 1689.31 1689.31 0 0 1-18.012 40.038 3830.339 3830.339 0 0 1-30.029-22.02c-10.245-7.547-20.69-15.346-31.365-23.355a3830.339 3830.339 0 0 1-30.03-22.02 818.846 818.846 0 0 0-31.364-22.02 1049.977 1049.977 0 0 1 35.367-26.028 5682.693 5682.693 0 0 1 35.366-24.692 2240.271 2240.271 0 0 0 34.036-26.692c11.11-8.882 21.12-18.228 30.029-28.029 18.683-18.683 28.029-36.473 28.029-53.385 0-16.89-5.337-32.901-16.02-48.048-11.572-15.118-27.356-29.565-47.375-43.375-20.02-13.781-41.603-26.9-64.73-39.366a450.119 450.119 0 0 1 13.346-15.346c4.444-4.882 8.882-10.01 13.346-15.355a445.169 445.169 0 0 1 14.012-16.01 454.303 454.303 0 0 1 14.017-14.683c37.366 21.355 66.73 42.704 88.086 64.058 21.349 21.356 36.03 42.711 44.04 64.067 8.881 21.349 11.345 43.167 7.345 65.395z m625.262-29.365c-0.892 24.92-2.229 49.175-4 72.74-1.792 23.584-4.465 47.375-8.01 71.404h0.007c-3.565 26.692-9.34 48.048-17.347 64.058-8.01 16.019-18.247 28.484-30.701 37.374-11.573 8.9-25.148 14.903-40.703 18.011-15.575 3.128-32.257 4.673-50.048 4.673a585.896 585.896 0 0 1-39.375 1.336h-38.031c-13.346 0-26.484-0.208-39.373-0.664-12.91-0.437-26.029-0.672-39.375-0.672 0-3.545-0.227-7.337-0.664-11.34-0.457-4.007-0.665-7.78-0.665-11.344-0.9-4.446-1.335-8.446-1.335-12.018 0-3.545-0.464-7.546-1.336-12.01h24.02c8.009 0 16.018 0.464 24.021 1.336h25.363c8.01 0 16.012-0.437 24.02-1.336 16.018-0.879 30.029-3.108 42.04-6.673 12.017-3.552 22.026-9.344 30.03-17.353 8.007-8.01 14.016-18.683 18.016-32.03 4.01-13.346 6.01-29.802 6.01-49.384l4-152.145c0.88-20.456 1.336-41.146 1.336-62.058 0-20.9-2.228-40.247-6.673-58.057-5.337-17.79-13.574-32.91-24.692-45.376-11.13-12.453-27.356-20.9-48.712-25.363-16.012-3.545-32.029-5.11-48.048-4.666-16.01 0.456-32.484 1.563-49.376 3.337a592.127 592.127 0 0 0-48.048 4.666c-16.018 2.234-32.493 3.799-49.384 4.671-2.67 0-5.565 0.464-8.673 1.336-3.128 0.9-6.465 1.337-10.01 1.337-2.67 0.899-5.565 1.791-8.673 2.67a278.578 278.578 0 0 1-10.01 2.667l50.712 38.708-41.373 38.703h256.249v50.72H782.98v58.722h152.152v41.375H782.988V663.62c6.21-1.772 12.218-3.336 18.012-4.671 5.78-1.336 11.781-2.444 18.02-3.337 6.215-1.78 12.224-3.11 18.017-4.008 5.773-0.88 11.783-2.21 18.019-4.001-2.671-2.673-4.9-5.78-6.674-9.346-1.798-3.551-4.007-6.673-6.68-9.344a79.45 79.45 0 0 0-6-10.01 72.094 72.094 0 0 1-6.01-10.009 522.755 522.755 0 0 1 14.018-5.338c4.874-1.779 10.01-4.008 15.348-6.674 4.444-1.771 9.344-3.545 14.68-5.343 5.339-1.772 10.219-3.545 14.683-5.337 11.554 7.135 21.356 14.911 29.358 23.356 8.01 8.465 14.226 17.582 18.69 27.363 4.438 9.801 7.337 20.02 8.673 30.695 1.337 10.68 0.666 22.254-2 34.701a362.332 362.332 0 0 1-13.346 12.68c-4.464 4.003-8.909 7.795-13.346 11.34-5.344 3.572-10.245 7.344-14.683 11.346-4.464 4.007-8.908 7.801-13.346 11.346-2.67-3.545-5.128-7.554-7.344-12.012a205.387 205.387 0 0 0-7.338-13.346c-2.671-3.55-5.129-7.552-7.344-12.016a206.47 206.47 0 0 0-7.337-13.346c-69.404 25.82-128.791 42.94-178.174 51.384-49.377 8.465-88.75 8.673-118.115 0.666-29.358-8.884-48.503-25.794-57.385-50.714-8.902-24.9-7.574-58.722 4-101.433h101.433c0 16.911 0.88 30.486 2.67 40.711 1.774 10.236 4.438 18.474 8.01 24.685 4.438 5.344 9.775 9.136 16.012 11.345 6.216 2.235 13.789 3.8 22.69 4.673h5.339v-118.78h-150.81v-40.039h150.815v-61.394H636.18v-8.01l-62.73 60.059-54.72-26.693 105.44-136.126c-11.575 4.458-22.484 9.801-32.702 16.01a444.054 444.054 0 0 0-30.029 20.02 310.141 310.141 0 0 0-25.356 22.692 307.524 307.524 0 0 0-22.692 25.363c-0.899 2.666-1.791 5.128-2.67 7.337a121.908 121.908 0 0 0-2.666 7.338c-0.9 1.799-2 3.8-3.337 6.008a36.11 36.11 0 0 0-3.337 7.339 983.834 983.834 0 0 1-20.019-15.347c-6.236-4.881-12.909-9.547-20.026-14.012a1753.509 1753.509 0 0 1-19.347-14.017 2070.392 2070.392 0 0 1-20.691-15.346 1955.164 1955.164 0 0 1 32.701-50.048 1940.107 1940.107 0 0 0 32.7-50.048 9510.15 9510.15 0 0 1 32.695-48.714 1938.803 1938.803 0 0 0 32.701-50.048 992.925 992.925 0 0 1 27.357 8.675 890.325 890.325 0 0 0 27.363 8.673 991.64 991.64 0 0 1 27.358 8.68 908.549 908.549 0 0 0 27.356 8.674c-2.664 5.336-4.9 10.466-6.673 15.346-1.792 4.901-4 9.574-6.673 14.012-1.792 5.343-3.792 10.472-6.008 15.353a321.34 321.34 0 0 0-6.002 14.01c42.704-19.562 89.858-34.03 141.471-43.375 51.593-9.344 100.097-11.344 145.472-6.007 44.483 4.464 82.521 17.81 114.107 40.038 31.573 22.255 49.155 55.183 52.72 98.767 2.673 28.484 4.216 55.614 4.673 81.413 0.436 25.812 0.209 51.176-0.672 76.069z" fill="#FF5500" p-id="3236"></path></svg>