<?xml version="1.0" standalone="no"?><!DOCTYPE svg PUBLIC "-//W3C//DTD SVG 1.1//EN" "http://www.w3.org/Graphics/SVG/1.1/DTD/svg11.dtd"><svg t="1508314965314" class="icon" style="" viewBox="0 0 1024 1024" version="1.1" xmlns="http://www.w3.org/2000/svg" p-id="4044" xmlns:xlink="http://www.w3.org/1999/xlink" width="20" height="20"><defs><style type="text/css"></style></defs><path d="M321.43872 734.88896l20.1984 0.06144v-19.81952h-20.1984zM569.1136 689.59232c-3.67616 0-5.0432 3.6608-5.0432 3.6608l-9.82016 23.45472c9.61536-7.03488 23.13728-7.90528 25.80992-8.05888l-5.89824-15.39584c0-0.00512-1.1776-3.6608-5.04832-3.6608zM291.15392 686.21312h20.29056v19.11296h-20.29056zM328.81664 686.26944h-7.3728v19.06176h20.19328v-6.8096c0-12.25216-3.3792-12.25216-12.82048-12.25216zM812.48768 687.23712c-5.87776 0-10.86976 1.82272-14.77632 5.51936-4.0192 3.80928-6.0672 9.70752-6.0672 17.6128 0 7.93088 2.04288 13.84448 6.0672 17.69472 3.99872 3.80928 8.80128 5.65248 14.77632 5.65248 5.76512 0 10.69568-1.8944 14.6176-5.65248 4.096-3.85024 6.15936-9.9328 6.15936-17.9968 0-7.6032-2.06336-13.34784-6.15936-17.21856-3.92192-3.712-8.85248-5.61152-14.6176-5.61152z" fill="#FE0137" p-id="4045"></path><path d="M861.52704 45.96736H162.47296c-64.3584 0-116.51072 52.1472-116.51072 116.5056v699.0336c0 64.36352 52.15232 116.5312 116.51072 116.5312h699.04896c64.34304 0 116.51072-52.16256 116.51072-116.5312V162.47296c0-64.3584-52.16256-116.5056-116.5056-116.5056zM227.93728 684.6208h-46.78656c1.1776 4.58752 11.15136 37.05344 46.70976 49.24416v10.8288c-19.65056-4.03968-42.2144-20.00384-53.22752-44.08832-9.67168 21.46304-29.4912 39.75168-50.95424 44.08832v-10.6752c34.9696-11.95008 43.33056-43.70944 44.50304-49.39776h-44.50304v-10.50624h45.68064v-27.43808H128.4608v-10.57792h94.6176v10.57792H180.224v27.43808h47.70816v10.50624z m45.92128 22.62528c0 34.12992-22.03648 37.504-29.96224 37.75488v-10.8288s19.09248-1.41824 19.09248-25.84576v-6.54336c-5.17632 2.67264-19.09248 11.05408-19.09248 11.05408v-11.05408l19.09248-11.16672v-17.90464c-5.248 2.72896-19.09248 11.03872-19.09248 11.03872v-11.03872l18.944-11.07456-0.24576-1.20832c-1.55648-8.68352-8.17664-13.50656-18.69824-13.75232v-10.63936c18.48832 0.3072 29.01504 9.70752 29.96224 27.26912v43.93984z m78.24896 37.44768H299.23328c-12.57472 0-18.45248-7.20384-18.45248-18.5856v-50.02752h53.22752c12.89728 0 18.08896 6.5792 18.08896 17.792v50.82112z m0.14848-86.22592h-11.15136v9.8048h-10.46528v-9.8048h-28.18048v9.8048h-10.42944v-9.8048h-11.19232v-10.57792h11.19232v-11.8528h10.42944v11.8528h28.18048v-11.8528h10.46528v11.8528H352.256v10.57792z m94.35648 28.3904H418.304v57.73824h-11.79648v-57.73824h-28.3136v-10.77248h68.41856v10.77248z m75.87328 57.64608h-11.71968V693.0944c-3.82976 2.10432-12.34432 4.87424-21.63712 4.87424h-0.60416c-9.6768 0-17.792-2.82624-21.62176-4.87424v51.40992h-11.71968v-60.43648c0-2.67264 0.53248-6.144 4.2496-7.58272 3.92704-1.47968 7.54688 1.34656 8.26368 1.8944 5.08416 3.94752 10.68032 7.43424 20.75136 7.43424h0.9472c10.05056 0 15.62624-3.49184 20.76672-7.43424 0.70144-0.64512 4.30592-3.47136 8.22784-1.8944 3.61984 1.43872 4.2496 4.91008 4.096 7.58272v60.43648z m71.72096 0l-10.21952-25.80992c-2.29376 0-28.95872-0.18944-40.96 25.80992h-12.02688l23.24992-57.02144s3.94752-11.30496 14.86336-11.30496c10.99776 0 14.86848 11.36128 14.86848 11.30496l23.28576 57.02144h-13.06112z m51.42528 0.09728h-14.23872c-11.07456 0-18.39616-7.41376-18.39616-17.71008v-50.63168h11.74016v45.35296c0 10.26048 4.39808 11.68384 12.23168 11.68384h8.66304v11.30496z m40.33536 0H671.744c-11.09504 0-18.39616-7.41376-18.39616-17.71008v-50.63168h11.6992v45.35296c0 10.26048 4.34688 11.68384 12.26752 11.68384h8.64256v11.30496z m18.26304-0.09728c-3.24608 0-5.91872-2.50368-5.91872-5.66784s2.67264-5.68832 5.91872-5.68832c3.22048 0 5.82144 2.62144 5.82144 5.68832 0 3.072-2.60096 5.66784-5.82144 5.66784z m69.12-15.22176c-2.60096 4.83328-6.56384 8.59136-11.59168 11.27936-5.00736 2.7136-10.61888 4.03968-16.49664 4.03968-9.53856 0-17.37216-2.9184-23.29088-8.83712-5.87264-5.84192-8.88832-14.39744-8.88832-25.29792 0-12.00128 3.61984-21.02784 10.61888-26.86976 5.9136-4.8896 13.13792-7.33696 21.56032-7.33696 9.34912 0 17.1264 2.9952 23.13728 8.92928 2.65728 2.59584 4.60288 5.66784 6.12352 9.17504h-13.21984a16.96256 16.96256 0 0 0-1.41824-1.51552c-3.90656-3.71712-8.89344-5.61664-14.6176-5.61664-5.9136 0-10.86464 1.82272-14.77632 5.51936-4.0192 3.80928-6.0672 9.70752-6.0672 17.6128 0 7.93088 2.04288 13.84448 6.0672 17.69472 4.00384 3.80928 8.80128 5.65248 14.77632 5.65248 5.72416 0 10.71616-1.8944 14.6176-5.65248 0.54784-0.4352 1.024-1.024 1.41824-1.55648h13.29664c-0.41984 0.93696-0.81408 1.90464-1.24928 2.78016z m67.20512-0.09728a27.8528 27.8528 0 0 1-11.55072 11.32032c-5.02272 2.67264-10.61888 3.99872-16.51712 3.99872-9.50272 0-17.37216-2.88256-23.29088-8.83712-5.87264-5.84192-8.87296-14.37696-8.87296-25.29792 0-12.00128 3.62496-20.992 10.61888-26.8288 5.87776-4.83328 13.12256-7.28064 21.54496-7.28064 9.36448 0 17.16224 2.9952 23.04 8.76032 5.96992 5.93408 8.9856 14.12608 8.9856 24.42752 0 8.28416-1.36192 14.91968-3.95776 19.7376z m79.10912 15.31904h-11.6992V693.0944c-3.8656 2.10432-12.35968 4.87424-21.63712 4.87424h-0.62464c-9.67168 0-17.77152-2.82624-21.62176-4.87424v51.40992h-11.73504v-60.43648c0-2.67264 0.64512-6.144 4.24448-7.58272 3.92704-1.47968 7.552 1.34656 8.2688 1.8944 5.1968 3.94752 10.6752 7.43424 20.74624 7.43424h0.96256c10.05056 0 15.62624-3.49184 20.74624-7.43424 0.70656-0.64512 4.3264-3.47136 8.2688-1.8944 3.61984 1.43872 4.22912 4.91008 4.07552 7.58272v60.43648z m0.08192-191.67744h-77.76768c14.09024-26.07104 13.75232-59.29472-0.93184-85.0432-12.82048-23.21408-36.5824-39.97696-62.6688-43.99616-3.37408-0.62464-6.78912-0.72192-10.1632-1.19296 5.28896 2.14016 8.26368 7.35744 10.94144 12.07808 6.67648 13.46048 9.59488 28.288 11.64288 43.0848 3.05152 24.89344 2.84672 50.24768-1.17248 75.06944H738.816c-3.09248-19.05664-3.8656-38.50752-2.74944-57.7792 0.93184-15.01696 2.90304-30.09024 7.14752-44.55936 2.35008-7.7568 5.18144-15.47264 10.07104-21.95968 1.64864-2.29376 3.87072-4.18816 6.2208-5.68832-16.13312 0.95232-32.08704 6.33344-45.30688 15.64672a88.96512 88.96512 0 0 0-31.21152 38.72256c-10.1632 24.09984-8.80128 52.71552 3.61984 75.67872H357.44768c13.50656-24.95488 13.75232-56.57088 0.77824-81.77152-11.01824-21.89824-31.36512-38.72256-54.97344-45.12768-6.12352-1.74592-12.4416-2.62144-18.69824-3.07712 5.0432 3.07712 8.2688 8.30464 10.84928 13.50656 5.84192 12.25216 8.57088 25.76896 10.5472 39.1424 3.45088 25.63584 3.29728 51.88096-0.79872 77.42464h-50.78016a266.0096 266.0096 0 0 1-0.09728-82.10944c2.29376-13.12256 5.28896-26.37824 11.79648-38.00576 2.2016-3.84512 5.13536-7.50592 8.97024-9.8816-28.14464 1.44384-55.14752 17.38752-69.97504 41.49248-16.6912 26.13248-17.86368 61.30688-2.9952 88.55552H123.6736V385.13664c0.68608-19.11296 2.42688-38.4 7.39328-56.96512 3.45088-12.59008 8.30464-25.22112 16.95744-35.08224 7.63904-8.87296 19.12832-14.37696 30.83264-14.06976 10.21952 0.13312 19.91168 4.47488 28.16 10.28096 11.63776 7.8848 20.45952 19.11296 29.63456 29.5424 18.6624 21.31456 37.67808 42.59328 60.23168 59.81184 20.992 16.04608 45.45536 27.8784 71.56736 32.4096 18.24256 3.39456 36.88448 2.29376 55.27552 2.44736 67.41504 0 134.71744-0.0768 202.09152 0 13.99296-0.14848 27.99104 0.64512 41.91232-1.17248 21.23776-2.39104 41.8304-9.40544 60.37504-19.98336 15.11424-8.15616 27.62752-19.98848 40.04864-31.70816a683.45856 683.45856 0 0 0 34.8928-36.02944c4.24448-4.58752 7.86944-9.70752 11.96544-14.44864 7.84896-9.09824 16.68608-17.55648 27.11552-23.62368 7.72096-4.43904 16.52224-7.51104 25.49248-7.03488a36.74624 36.74624 0 0 1 24.45824 9.6512c9.11872 8.28928 14.52544 19.79904 18.46784 31.36512 5.82144 17.75104 8.01792 36.56192 9.20064 55.2192v177.08032z" fill="#FE0137" p-id="4046"></path><path d="M291.15392 722.79552c0 11.06944 4.64384 12.09344 14.15168 12.09344h6.13888v-19.75808h-20.29056v7.66464zM537.99936 489.12896c-11.4944 0-23.13728-0.22528-34.68288 0-2.9184 0.3072-6.144 1.17248-7.77728 3.79392-1.59744 2.46272-0.39936 5.44256 1.17248 7.58272a2253.14304 2253.14304 0 0 1 20.25472 28.13952c2.44736 2.35008 7.0912 2.29376 9.69216 0.3072 6.74816-9.41056 13.44512-18.79552 20.29056-28.05248 1.72544-2.29376 3.14368-5.61152 1.26976-8.2432-2.44224-2.97472-6.59968-3.52768-10.21952-3.52768z" fill="#FE0137" p-id="4047"></path></svg>