<?xml version="1.0" encoding="utf-8"?>
<!-- Generator: Adobe Illustrator 21.0.0, SVG Export Plug-In . SVG Version: 6.00 Build 0)  -->
<svg version="1.1" id="图层_1" xmlns="http://www.w3.org/2000/svg" xmlns:xlink="http://www.w3.org/1999/xlink" x="0px" y="0px"
	 viewBox="0 0 1024 1024" style="enable-background:new 0 0 1024 1024;" xml:space="preserve">
<style type="text/css">
	.st0{fill:#FF3341;}
	.st1{fill:#FFFFFF;}
</style>
<g>
	<circle class="st0" cx="512" cy="512" r="448"/>
	<g>
		<path class="st1" d="M759.9,316.2L316.2,759.9c-12.4,12.4-32.8,12.4-45.3,0l-6.9-6.9c-12.4-12.4-12.4-32.8,0-45.3l443.7-443.7
			c12.4-12.4,32.8-12.4,45.3,0l6.9,6.9C772.4,283.4,772.4,303.8,759.9,316.2z"/>
		<path class="st1" d="M316.2,264.1l443.7,443.7c12.4,12.4,12.4,32.8,0,45.3l-6.9,6.9c-12.4,12.4-32.8,12.4-45.3,0L264.1,316.2
			c-12.4-12.4-12.4-32.8,0-45.3l6.9-6.9C283.4,251.6,303.8,251.6,316.2,264.1z"/>
	</g>
</g>
</svg>
