<?xml version="1.0" encoding="utf-8"?>
<!-- Generator: Adobe Illustrator 21.0.0, SVG Export Plug-In . SVG Version: 6.00 Build 0)  -->
<svg version="1.1" id="图层_1" xmlns="http://www.w3.org/2000/svg" xmlns:xlink="http://www.w3.org/1999/xlink" x="0px" y="0px"
	 viewBox="0 0 1024 1024" style="enable-background:new 0 0 1024 1024;" xml:space="preserve">
<style type="text/css">
	.st0{display:none;}
	.st1{display:inline;fill:#FF3341;}
	.st2{display:inline;}
	.st3{fill:#FFFFFF;}
	.st4{fill:#029E4A;}
</style>
<g class="st0">
	<circle class="st1" cx="512" cy="512" r="448"/>
	<g class="st2">
		<path class="st3" d="M759.9,316.2L316.2,759.9c-12.4,12.4-32.8,12.4-45.3,0l-6.9-6.9c-12.4-12.4-12.4-32.8,0-45.3l443.7-443.7
			c12.4-12.4,32.8-12.4,45.3,0l6.9,6.9C772.4,283.4,772.4,303.8,759.9,316.2z"/>
		<path class="st3" d="M316.2,264.1l443.7,443.7c12.4,12.4,12.4,32.8,0,45.3l-6.9,6.9c-12.4,12.4-32.8,12.4-45.3,0L264.1,316.2
			c-12.4-12.4-12.4-32.8,0-45.3l6.9-6.9C283.4,251.6,303.8,251.6,316.2,264.1z"/>
	</g>
</g>
<g>
	<circle class="st4" cx="512" cy="512" r="448"/>
	<path class="st3" d="M810.7,373.9l-381,381c-12.4,12.4-32.8,12.4-45.3,0h0c-12.4-12.4-12.4-32.8,0-45.3l381-381
		c12.4-12.4,32.8-12.4,45.3,0v0C823.1,341.1,823.1,361.4,810.7,373.9z"/>
	<path class="st3" d="M257.6,540l170.5,170.5c12.4,12.4,12.4,32.8,0,45.3l-5.5,5.5c-9.4,9.4-24.9,9.4-34.3,0l-176-176
		c-12.4-12.4-12.4-32.8,0-45.3l0,0C224.8,527.6,245.1,527.6,257.6,540z"/>
</g>
</svg>
