<?xml version="1.0" standalone="no"?><!DOCTYPE svg PUBLIC "-//W3C//DTD SVG 1.1//EN" "http://www.w3.org/Graphics/SVG/1.1/DTD/svg11.dtd"><svg class="icon" width="200px" height="200.00px" viewBox="0 0 1024 1024" version="1.1" xmlns="http://www.w3.org/2000/svg"><path d="M512.2 1021.1c-25.1 0-50.4-1.9-75.4-5.6-67.9-10.1-131.8-33.2-189.9-68.6-56.1-34.2-104.5-78.5-143.9-131.5-39.3-53-67.6-112.2-84.1-175.9C2 573.6-1.6 505.7 8.5 437.8S41.7 306 77.1 247.9c34.2-56.1 78.5-104.5 131.5-143.9 53-39.3 112.2-67.6 175.9-84.1C450.4 3 518.3-0.6 586.2 9.5 654.1 19.6 718 42.7 776.1 78.1c56.1 34.2 104.5 78.5 143.9 131.5 39.3 53 67.6 112.2 84.1 175.9 17 65.9 20.6 133.8 10.5 201.7-15.5 104.3-62 199.6-134.4 275.7-34.9 36.6-74.9 67.8-119 92.7-44.5 25.1-92.3 43.3-142.1 54.1l-10.6-48.9c44.8-9.7 87.9-26.1 128.1-48.8 39.8-22.4 75.9-50.6 107.4-83.6 65.3-68.6 107.2-154.5 121.2-248.6 9.1-61.2 5.9-122.4-9.4-181.8-14.8-57.4-40.3-110.8-75.8-158.6s-79.1-87.7-129.7-118.6c-52.4-31.9-110-52.7-171.2-61.8-61.2-9.1-122.4-5.9-181.8 9.4-57.4 14.8-110.8 40.3-158.6 75.8S151 223.3 120.1 273.9c-31.9 52.4-52.7 110-61.8 171.2-9.1 61.2-5.9 122.4 9.4 181.8 14.8 57.4 40.3 110.8 75.8 158.6s79.1 87.7 129.7 118.6c52.4 31.9 110 52.7 171.2 61.8 31.1 4.6 62.7 6.1 93.8 4.3l2.8 49.9c-9.7 0.7-19.2 1-28.8 1z"  /><path d="M325 293v91h-87.6c21-35.3 48.6-66.2 81.1-91h6.5zM325 434v291.4c-17.6-13.8-34.9-30.1-52.6-49.4 7.2-46.4 10.7-102 9.1-176.9l-50 1.1c1.7 78.4-2.2 133.8-10.4 179.7-18.4-40.3-28.6-85.2-28.6-132.4 0-40 7.3-78.2 20.7-113.5H325zM602.5 854.6c-28.6 8.4-58.8 12.9-90 12.9-103.6 0-195.8-49.3-254.2-125.7l1.8-6.9c52 50 104.5 79.1 172.9 96.9 47.4 12.3 103.2 19.2 169.5 22.8zM559.7 564h217.6v158H559.7z" fill="#FF3341" /><path d="M827.3 605.3V514H509.7v258h230.8c-12.9 13.1-26.8 25-41.8 35.7-106.5-1.5-189-7.6-253.2-24.3-26.2-6.8-49.5-15.3-71.2-26.4h0.7V600h111v-50H375V434h124v-50H375v-91h111v-50h-72.2c31.1-10.1 64.2-15.5 98.7-15.5h0.5V268h88.3c1.1 8.2 1.7 16.6 1.7 25 0 76-47.1 142-112 156.9l11.2 48.7c42.4-9.8 80.9-35.7 108.3-73.1C637.9 388.2 653 341.2 653 293c0-8.4-0.4-16.7-1.3-25h16.8c45.6 25.5 84.2 61.8 112.6 105.4V450H652v50h177c2.3 15.5 3.5 31.4 3.5 47.5 0 19.7-1.8 39.1-5.2 57.8z" fill="#FF3341" /><path d="M509.7 514v258h317.6V514H509.7z m50 208V564h217.6v158H559.7zM831 218v282H652v-50h129V268H651.7c0.9 8.3 1.3 16.6 1.3 25 0 48.2-15.1 95.2-42.4 132.5-27.5 37.4-65.9 63.4-108.3 73.1L491 449.9C555.9 435 603 369 603 293c0-8.4-0.6-16.8-1.7-25H513v-50h318z"  /><path d="M802.2 858c-13.8 0.1-27.3 0.1-40.5 0.1-59 0-111.7-0.9-159.1-3.5-66.4-3.6-122.2-10.5-169.6-22.8-68.4-17.7-120.9-46.8-172.9-96.8l-1.8 6.9c-8.3 30-18.5 57.6-30 87.2L181.7 811c17.1-44 30.7-82.2 39.4-131 8.2-46 12-101.3 10.4-179.7l50-1.1c1.6 74.8-1.8 130.5-9.1 176.9 17.7 19.3 35 35.6 52.6 49.4V434H205v-50h120v-91H214v-50h111v-49h50v49h111v50H375v91h124v50H375v116h111v50H375v157h-0.7c21.7 11.1 45 19.6 71.2 26.4 64.2 16.7 146.8 22.8 253.2 24.3 32.1 0.5 66.4 0.5 103.1 0.3l0.4 50z"  /></svg>