<?xml version="1.0" standalone="no"?><!DOCTYPE svg PUBLIC "-//W3C//DTD SVG 1.1//EN" "http://www.w3.org/Graphics/SVG/1.1/DTD/svg11.dtd"><svg class="icon" width="200px" height="200.00px" viewBox="0 0 1024 1024" version="1.1" xmlns="http://www.w3.org/2000/svg"><path d="M512.2 1021.1c-25.1 0-50.4-1.9-75.4-5.6-67.9-10.1-131.8-33.2-189.9-68.6-56.1-34.2-104.5-78.5-143.9-131.5-39.3-53-67.6-112.2-84.1-175.9C2 573.6-1.6 505.7 8.5 437.8S41.7 306 77.1 247.9c34.2-56.1 78.5-104.5 131.5-143.9 53-39.3 112.2-67.6 175.9-84.1C450.4 3 518.3-0.6 586.2 9.5 654.1 19.6 718 42.7 776.1 78.1c56.1 34.2 104.5 78.5 143.9 131.5 39.3 53 67.6 112.2 84.1 175.9 17 65.9 20.6 133.8 10.5 201.7-15.5 104.3-62 199.6-134.4 275.7-34.9 36.6-74.9 67.8-119 92.7-44.5 25.1-92.3 43.3-142.1 54.1l-10.6-48.9c44.8-9.7 87.9-26.1 128.1-48.8 39.8-22.4 75.9-50.6 107.4-83.6 65.3-68.6 107.2-154.5 121.2-248.6 9.1-61.2 5.9-122.4-9.4-181.8-14.8-57.4-40.3-110.8-75.8-158.6s-79.1-87.7-129.7-118.6c-52.4-31.9-110-52.7-171.2-61.8-61.2-9.1-122.4-5.9-181.8 9.4-57.4 14.8-110.8 40.3-158.6 75.8S151 223.3 120.1 273.9c-31.9 52.4-52.7 110-61.8 171.2-9.1 61.2-5.9 122.4 9.4 181.8 14.8 57.4 40.3 110.8 75.8 158.6s79.1 87.7 129.7 118.6c52.4 31.9 110 52.7 171.2 61.8 31.1 4.6 62.7 6.1 93.8 4.3l2.8 49.9c-9.7 0.7-19.2 1-28.8 1z"  /><path d="M512.5 547.5m-320 0a320 320 0 1 0 640 0 320 320 0 1 0-640 0Z" fill="#66CCFF" /><path d="M537 571.4L441.2 471 345 569.3V184h192v387.4zM395 234v212.7l46.6-47.7 45.4 47.6V234h-92zM745.2 705H259v56.6c0 5.7 3.5 10.3 7.7 10.3h0.3c0.1 0 4 0 16 0.2 3.6 0.1 7.6-0.1 10-0.1h-3c-7.2 0-13-5.8-13-13v-1c0-7.2 5.8-13 13-13h441v27h14.2c4.3 0 7.7-4.6 7.7-10.3v-46.3c0-5.8-3.4-10.4-7.7-10.4z"  /><path d="M301 184c-41.4 0-75 33.6-75 75v488c0 41.4 33.6 75 75 75h479V184H301z m430 588H290c-7.2 0-13-5.8-13-13v-1c0-1 0.1-2 0.3-2.9-0.9-2.5-1.3-5.2-1.3-8.1V259c0-13.8 11.2-25 25-25h429v511h1v27z"  /></svg>