<?xml version="1.0" standalone="no"?><!DOCTYPE svg PUBLIC "-//W3C//DTD SVG 1.1//EN" "http://www.w3.org/Graphics/SVG/1.1/DTD/svg11.dtd"><svg class="icon" width="200px" height="200.00px" viewBox="0 0 1024 1024" version="1.1" xmlns="http://www.w3.org/2000/svg"><path d="M416.6 846.9h194.2s205.1-196.7 205.1-394.5c0-195.4-155.7-265.1-229.2-283.5-19.3-4.8-131.5-9.7-149.6 0-15.8 8.4-76 8.4-131.5 62.7-60 58.7-101 148.1-106.2 187-26.8 201.9 217.2 428.3 217.2 428.3z" fill="#FC4050" /><path d="M470.9 862.6h79.6l39.8-692.4s-6-59.1-74.8-59.1c-63.9 0-68.8 59.1-68.8 59.1l24.2 692.4z" fill="#FDB865" /><path d="M272.7 845.7H754V906H272.7z" fill="#F6D760" /><path d="M544.8 892.7h-65.3c-6.6 0-12-5.4-12-12v-8.6c0-6.6 5.4-12 12-12h65.3c6.6 0 12 5.4 12 12v8.6c0 6.6-5.4 12-12 12z" fill="#CA7C34" /><path d="M701.2 183.4S853.6 320.2 846 456c-9.7 171.3-191.8 392.1-191.8 392.1h96.5s288.5-270.3 265.4-446.4c-27.8-211.1-207.5-252.1-314.9-218.3zM323.7 183.4S171.3 320.2 178.9 456c9.7 171.3 191.8 392.1 191.8 392.1h-96.5S-14.3 577.8 8.8 401.7c27.8-211.1 207.5-252.1 314.9-218.3z" fill="#F6D760" /></svg>