<?xml version="1.0" standalone="no"?><!DOCTYPE svg PUBLIC "-//W3C//DTD SVG 1.1//EN" "http://www.w3.org/Graphics/SVG/1.1/DTD/svg11.dtd"><svg class="icon" width="200px" height="200.00px" viewBox="0 0 1024 1024" version="1.1" xmlns="http://www.w3.org/2000/svg"><path d="M516.1 969s66.5-76.9 169.3-171.7C809.1 683.2 952.3 502.5 986.8 359c24-99.7-20.4-210.1-117.7-271.4C807 48.5 725.6 52.5 695 62.4 588.9 96.6 525.9 198.1 507.7 198.1c0 0-55.2-63.6-104.5-94.9-49.7-31.5-100.9-51.6-160.9-42-114.5 18.3-157.2 92-178.9 126.1-109.3 171.7 80 409.4 231.7 568 119.6 124.8 221 213.7 221 213.7z" fill="#FF3341" /><path d="M708.5 969s39.7-45.9 101.1-102.5c73.8-68.1 159.3-176 179.9-261.6 14.3-59.5-12.2-125.4-70.2-162-37.1-23.3-85.6-20.9-103.9-15.1-63.4 20.4-101 81-111.8 81 0 0-33-38-62.4-56.6-29.7-18.8-60.2-30.8-96-25.1-68.3 10.9-93.8 54.9-106.8 75.3-65.4 102.5 47.6 244.4 138.2 339C647.9 915.9 708.5 969 708.5 969z" fill="#FFB5BA" /></svg>