<?xml version="1.0" standalone="no"?><!DOCTYPE svg PUBLIC "-//W3C//DTD SVG 1.1//EN" "http://www.w3.org/Graphics/SVG/1.1/DTD/svg11.dtd"><svg class="icon" width="200px" height="200.00px" viewBox="0 0 1024 1024" version="1.1" xmlns="http://www.w3.org/2000/svg"><path d="M1004 385.5c17 65.9 20.5 133.8 10.5 201.7-15.5 104.3-62 199.6-134.4 275.7-34.9 36.6-74.9 67.8-119 92.7-44.5 25.1-92.3 43.3-142.1 54.1l-10.6-48.9c44.9-9.7 87.9-26.1 128.1-48.8 39.8-22.4 75.9-50.6 107.4-83.6 65.3-68.6 107.2-154.5 121.2-248.6 9.1-61.2 5.9-122.4-9.4-181.8-14.8-57.4-40.3-110.8-75.8-158.6s-79.1-87.8-129.7-118.6C697.8 88.9 640.2 68 579 59c-61.4-9.1-122.6-6-182 9.4-57.4 14.8-110.8 40.3-158.6 75.8s-87.8 79.1-118.6 129.7C87.9 326.3 67 383.9 58 445.1c-9.1 61.3-6 122.5 9.4 181.9 14.8 57.4 40.3 110.8 75.8 158.6s79.1 87.8 129.7 118.6c52.4 31.9 110 52.8 171.2 61.8 31.1 4.6 62.7 6.1 93.8 4.3l2.8 49.9c-9.5 0.5-19.1 0.8-28.6 0.8-25.1 0-50.4-1.9-75.4-5.6-67.9-10.1-131.8-33.2-189.9-68.6-56.1-34.2-104.6-78.5-143.9-131.5-39.3-53-67.6-112.2-84.1-175.9C2 573.6-1.6 505.7 8.5 437.8S41.7 306 77.1 247.9c34.2-56.1 78.5-104.6 131.5-143.9 53-39.3 112.2-67.6 175.9-84.1C450.4 3 518.3-0.6 586.2 9.5 654.1 19.6 718 42.7 776.1 78.1c56.1 34.2 104.5 78.5 143.9 131.5 39.3 53.1 67.6 112.3 84 175.9z"  /><path d="M832.5 547.5c0 17.3-1.4 34.2-4 50.7-13.3-36.8-31.5-71.5-49.6-99-4.3-6.4-8.9-12.9-13.8-19.8-23.7-33.3-50.5-71-51.1-122.7-0.3-23.3 1.5-40.9 4.4-54.2 69.8 58.7 114.1 146.7 114.1 245zM799 690.2c-14 28.1-32.1 53.9-53.5 76.6-11.1-7.6-13.5-23.6-13.5-36.3h-50c0 29.7 9.3 54.1 26.2 70.2-54.1 41.9-122 66.8-195.7 66.8-124.3 0-232-70.8-285-174.3v-99.6c0.8-0.2 1.5-0.5 2.1-0.6 38-0.6 70.6-21.3 91.9-58.5C340.1 501.8 350 457.1 350 405c0-50.5-5.4-91.8-16-123.1 7.8-5.2 15.8-10.1 24-14.7V824h112v-50h-62V245c19.8-6.9 40.6-11.8 62-14.7v502.9c1.5 50.4 42.4 90.8 92.5 90.8 51 0 92.5-42.1 92.5-93.8v-0.2c0.2-102.4 0.1-358.7 0-469.1 6.9 3.4 13.6 7.1 20.1 11-7.9 22.3-11.6 50.6-11.2 85.4 0.8 67.4 35.2 115.8 60.3 151.1 4.6 6.5 9 12.7 12.8 18.4 26.9 40.6 48.4 90.6 57.4 133.9 2.5 10.8 3.9 20.6 4.6 29.5z" fill="#FFAD33" /><path d="M812.1 802.6c-13 12.2-31.8 18.7-50.9 18.7-10.8 0-21.6-2.1-31.5-6.3-8.2-3.5-15.4-8.3-21.6-14.2-16.9-16.1-26.2-40.6-26.2-70.2h50c0 12.7 2.5 28.7 13.5 36.3 1.2 0.9 2.6 1.6 4.1 2.3 10.7 4.6 23.7 1.4 28.3-2.9 12.2-11.5 24.5-33.7 21.1-76-0.7-8.9-2.1-18.7-4.4-29.5-9.1-43.2-30.6-93.3-57.4-133.9-3.8-5.7-8.2-11.9-12.8-18.4-25.1-35.3-59.6-83.7-60.3-151.1-0.4-34.8 3.3-63.1 11.2-85.4 5.6-15.8 13.3-28.6 23.1-38.6 15.9-16.1 36.6-24.3 61.7-24.3 19.2 0 37.9 11.8 51.4 32.3 8.9 13.6 19.6 37.4 19.6 73h-50c0-16.8-3.5-32.1-10-43.2-5-8.7-10-11.7-11.4-12.1-14.8 0.1-21.8 5.4-25.7 9.4-5.5 5.5-11.5 15.7-15.5 34.1-2.9 13.3-4.6 30.9-4.4 54.2 0.6 51.7 27.4 89.4 51.1 122.7 4.9 6.9 9.5 13.3 13.8 19.8 18.2 27.5 36.3 62.2 49.6 99 26.9 74.2 34.3 156.7-16.4 204.3zM655 730v0.2c0 51.7-41.5 93.8-92.5 93.8-50 0-90.9-40.5-92.5-90.8V209h50v521.2c0 24.2 19.1 43.8 42.5 43.8s42.5-19.7 42.5-43.8V209h50v51.9c0.1 110.4 0.2 366.7 0 469.1z"  /><path d="M605 241.1v489.1c0 24.2-19.1 43.8-42.5 43.8S520 754.3 520 730.2V227.6c29.5 0.7 58 5.3 85 13.5z" fill="#FFAD33" /><path d="M470 733.2v-3 3zM470 774v50H358V209h50v565zM334 281.9c-0.8-2.4-1.6-4.7-2.5-7-7.6-19.6-17.6-35.2-29.9-46.2-14.4-12.9-32.3-19.7-51.6-19.7-1.5 0-11 0.2-22.5 0.6v-0.6h-50v613h50V593.6c0.8-0.2 1.5-0.5 2.1-0.6 38-0.6 70.6-21.3 91.9-58.5C340.1 501.8 350 457.1 350 405c0-50.5-5.4-91.8-16-123.1z m-56 227.8c-12.8 22.4-29.2 33.3-50 33.3h-0.5V259.6c10.3-0.3 19.4-0.6 22.5-0.6 6 0 21.8 0 34.8 33.8 2.6 6.8 4.9 14.5 6.9 23.1 5.5 23.8 8.3 54.1 8.3 89.1 0 42.8-7.8 79.9-22 104.7z"  /><path d="M300 405c0 42.8-7.8 79.9-22 104.7-12.8 22.4-29.2 33.3-50 33.3h-0.5V401.8c16.5-32.2 38.2-61.2 64.2-85.9 5.5 23.9 8.3 54.1 8.3 89.1z" fill="#FFAD33" /></svg>