<?xml version="1.0" standalone="no"?><!DOCTYPE svg PUBLIC "-//W3C//DTD SVG 1.1//EN" "http://www.w3.org/Graphics/SVG/1.1/DTD/svg11.dtd"><svg class="icon" width="200px" height="200.00px" viewBox="0 0 1024 1024" version="1.1" xmlns="http://www.w3.org/2000/svg"><path d="M513.5 547.5m-320 0a320 320 0 1 0 640 0 320 320 0 1 0-640 0Z" fill="#FFB5BA" /><path d="M272 400h483v50H272zM510 209H351v-50h159zM284 563h460v50H284z"  /><path d="M489 783V425h50v358z"  /><path d="M230 752h566v50H230zM180 372s194.4-117.9 250-165l69 2S246 400 202 413l-22-41zM510 159s46 0 62 9c26.6 15 266 208 285 207s-42 32-42 32-244.5-175.7-258-188c-11-10-47-10-47-10v-50z"  /><path d="M513.2 1021.1c-24.9 0-49.9-1.8-74.6-5.5-67.9-10-131.8-33-190-68.3C192.4 913.2 143.9 869 104.5 816c-39.4-53-67.8-112.1-84.3-175.7C3.1 574.4-0.6 506.5 9.4 438.6s33-131.8 68.3-190C111.8 192.4 156 143.9 209 104.5c53-39.4 112.1-67.8 175.7-84.3C450.6 3.1 518.5-0.6 586.4 9.4c67.9 10 131.8 33 190 68.3C832.6 111.8 881.1 156 920.5 209c39.4 53 67.8 112.1 84.3 175.7 17.1 65.9 20.8 133.7 10.8 201.6-15.3 104.3-61.6 199.7-134 275.9-34.8 36.7-74.8 67.9-118.9 92.9-44.5 25.2-92.2 43.5-142 54.3L610 960.5c44.8-9.8 87.9-26.2 128-49 39.7-22.5 75.8-50.7 107.2-83.8C910.4 759 952.2 673 966 578.9c9-61.3 5.7-122.4-9.7-181.8-14.9-57.4-40.5-110.7-76.1-158.5-35.6-47.8-79.3-87.6-129.9-118.4C698 88.6 640.4 67.9 579.1 58.9c-61.2-9-122.4-5.7-181.8 9.7-57.4 14.9-110.7 40.5-158.5 76.1-47.8 35.6-87.6 79.3-118.4 129.9-31.8 52.4-52.5 110-61.5 171.3s-5.7 122.4 9.7 181.8c14.9 57.4 40.5 110.7 76.1 158.5 35.6 47.8 79.3 87.6 129.9 118.4 52.4 31.9 110.1 52.6 171.3 61.6 31.1 4.6 62.7 6 93.8 4.2l2.9 49.9c-9.7 0.5-19.6 0.8-29.4 0.8z"  /></svg>