<?xml version="1.0" standalone="no"?><!DOCTYPE svg PUBLIC "-//W3C//DTD SVG 1.1//EN" "http://www.w3.org/Graphics/SVG/1.1/DTD/svg11.dtd"><svg class="icon" width="48px" height="48.00px" viewBox="0 0 1024 1024" version="1.1" xmlns="http://www.w3.org/2000/svg"><path d="M874.8 606.3H703.2V63.7h171.6c55.3 0 100.2 45 100.2 100.2V506c0 55.4-45 100.3-100.2 100.3z m-121.6-50h121.6c27.7 0 50.2-22.5 50.2-50.2V163.9c0-27.7-22.5-50.2-50.2-50.2H753.2v442.6z" fill="#08090a" /><path d="M411.4 961.3c-9.6 0-78.7-2.2-106.6-64.9-2.5-5.5-7.6-17-8.6-85.4-0.5-32.6 0.2-66 0.9-74.7 0-0.5 0.1-1 0.1-1.5v-1.1l6.9-125.6H154.9C96.5 608 49 564 49 509.8V149.6c0-47.4 41.4-85.9 92.3-85.9h502.3v50H141.3c-23.3 0-42.3 16.1-42.3 35.9v360.2c0 26.6 25.1 48.2 55.9 48.2h202l-9.8 177.8c0 1.4-0.1 2.9-0.2 4.3-0.4 5.4-1.2 34.9-0.8 67.6 0.7 53.8 4 67.1 4.5 68.7 11.3 24.9 36.4 32 50.5 34 112.6-127.7 274.1-312 301.9-347.1V113.7h-0.9v-50H753v507.6c0 10.2-4.1 15.1-19.4 33.5-8.3 10-20.4 24.3-36.1 42.5-26.3 30.6-62.9 72.8-108.9 125.3-78.2 89.4-157.4 179.2-158.2 180.1l-7.2 8.2-10.9 0.3c0 0.1-0.4 0.1-0.9 0.1z m-60.6-84.7z" fill="#08090a" /></svg>