<?xml version="1.0" encoding="utf-8"?>
<!-- Generator: Adobe Illustrator 21.0.0, SVG Export Plug-In . SVG Version: 6.00 Build 0)  -->
<svg version="1.1" id="Layer_1" xmlns="http://www.w3.org/2000/svg" xmlns:xlink="http://www.w3.org/1999/xlink" x="0px" y="0px"
	 viewBox="0 0 512 220" style="enable-background:new 0 0 512 220;" xml:space="preserve">
<style type="text/css">
	.st0{fill:#FFFFFF;}
	.st1{fill:#EFF0F2;}
	.st2{fill:none;stroke:#D4D5D8;stroke-miterlimit:10;stroke-dasharray:16,16;}
	.st3{opacity:0.1;}
	.st4{fill:#D4D5D8;}
</style>
<g>
	<path id="path-1" class="st0" d="M512,18v-8c-4.4,0-8-3.6-8-8c0-0.7,0.1-1.4,0.3-2H7.7C7.9,0.6,8,1.3,8,2c0,4.4-3.6,8-8,8v8
		c4.4,0,8,3.6,8,8s-3.6,8-8,8v8c4.4,0,8,3.6,8,8s-3.6,8-8,8v8c4.4,0,8,3.6,8,8s-3.6,8-8,8v8c4.4,0,8,3.6,8,8s-3.6,8-8,8v8
		c4.4,0,8,3.6,8,8s-3.6,8-8,8v8c4.4,0,8,3.6,8,8s-3.6,8-8,8v8c4.4,0,8,3.6,8,8s-3.6,8-8,8v8c4.4,0,8,3.6,8,8s-3.6,8-8,8v8
		c4.4,0,8,3.6,8,8c0,0.7-0.1,1.4-0.3,2h496.5c-0.2-0.6-0.3-1.3-0.3-2c0-4.4,3.6-8,8-8v-8c-4.4,0-8-3.6-8-8s3.6-8,8-8v-8
		c-4.4,0-8-3.6-8-8s3.6-8,8-8v-8c-4.4,0-8-3.6-8-8s3.6-8,8-8v-8c-4.4,0-8-3.6-8-8s3.6-8,8-8v-8c-4.4,0-8-3.6-8-8s3.6-8,8-8v-8
		c-4.4,0-8-3.6-8-8s3.6-8,8-8v-8c-4.4,0-8-3.6-8-8s3.6-8,8-8v-8c-4.4,0-8-3.6-8-8S507.6,18,512,18z"/>
</g>
<title>Mask</title>
<desc>Created with Sketch.</desc>
<g id="Symbols">
	<g id="白拿_x2F_必中券-失效">
		<g id="Group-Copy-2">
			<g id="必中">
				<g id="Mask">
					<path id="path-1_1_" class="st1" d="M512,18v-8c-4.4,0-8-3.6-8-8c0-0.7,0.1-1.4,0.3-2H7.7C7.9,0.6,8,1.3,8,2c0,4.4-3.6,8-8,8v8
						c4.4,0,8,3.6,8,8s-3.6,8-8,8v8c4.4,0,8,3.6,8,8s-3.6,8-8,8v8c4.4,0,8,3.6,8,8s-3.6,8-8,8v8c4.4,0,8,3.6,8,8s-3.6,8-8,8v8
						c4.4,0,8,3.6,8,8s-3.6,8-8,8v8c4.4,0,8,3.6,8,8s-3.6,8-8,8v8c4.4,0,8,3.6,8,8s-3.6,8-8,8v8c4.4,0,8,3.6,8,8s-3.6,8-8,8v8
						c4.4,0,8,3.6,8,8c0,0.7-0.1,1.4-0.3,2h496.5c-0.2-0.6-0.3-1.3-0.3-2c0-4.4,3.6-8,8-8v-8c-4.4,0-8-3.6-8-8s3.6-8,8-8v-8
						c-4.4,0-8-3.6-8-8s3.6-8,8-8v-8c-4.4,0-8-3.6-8-8s3.6-8,8-8v-8c-4.4,0-8-3.6-8-8s3.6-8,8-8v-8c-4.4,0-8-3.6-8-8s3.6-8,8-8v-8
						c-4.4,0-8-3.6-8-8s3.6-8,8-8v-8c-4.4,0-8-3.6-8-8s3.6-8,8-8v-8c-4.4,0-8-3.6-8-8S507.6,18,512,18z"/>
				</g>
			</g>
		</g>
	</g>
</g>
<line class="st2" x1="0" y1="107" x2="512" y2="107"/>
<g class="st3">
	<path class="st4" d="M213.5,125.3c7.6-3.2,15.4-7.4,24.8-12c25.5-12.7,55.8-35.2,79.7-61.2c2.2-2.4,5-2.6,7.6-1.7
		c1.3,0.5,2.5,1.3,3.6,2.4c2.3,1.9,3.2,5.2,2.2,8c-0.3,0.9-0.9,2-1.9,2.9c-27.8,28.4-57.3,50.4-88.6,65.7
		c-11.1,5.3-22.4,10.6-34.4,14.9l-4.9,13.3c-2.5,6.8-1.3,9.3,23.9,18.5c22.4,8.1,29,7.4,33,3.9c4.9-4.2,9.3-13.9,13.9-25.4
		c1.6-3.9,4.9-5.2,9.2-3.7c0.2,0.1,0.4,0.1,0.6,0.2c4.6,1.9,6.1,5.4,4.7,9.4c0,0-0.1,0.2-0.1,0.4c-5.4,13.8-12.1,26.7-19.2,32.4
		c-3,2.3-6.5,3.4-11.1,4.1c-7.4,0.9-20.2-1.8-38.1-8.3c-1.9-0.7-3.8-1.4-5.6-2.1c-29.4-11.1-32.2-17.5-27.6-30l3.4-9.2
		c-13.3,3.9-27.6,7.4-42.7,9.8c-1.8,0.4-3.5,0.2-5-0.3c-2.4-0.9-4.3-2.8-4.9-5.8c-0.4-1.8-0.2-3.7,0.4-5.2c0.9-2.4,3-4,5.4-4.4
		c16.7-2,34.5-6,53.4-12.3l29-79.7c1.2-3.4,4.8-4.9,9.4-3.2c5.1,1.8,6.4,5.1,5.2,8.5L213.5,125.3z M195.6,55.1
		c0.4,0.1,0.9,0.3,1.2,0.7c4.2,2.4,5.5,5.4,4.3,8.8c-0.2,0.6-0.4,1.1-0.8,1.6c-12,21.2-25.1,39.6-41.2,55.2c-2,2-4.8,2.7-7.6,1.7
		c-1.3-0.5-2.5-1.3-3.6-2.4c-2.5-2.4-3.1-5.4-2.2-8c0.3-0.9,0.9-1.8,1.6-2.6c15.3-14,27.8-31.4,39.6-52
		C188.9,54.8,192.1,53.8,195.6,55.1z M291.9,50.2c1.9,2.4,2.5,4.9,1.6,7.4c-0.5,1.5-1.7,3-3.5,4.5c-2.4,1.9-5.1,2.4-7.4,1.6
		c-1.5-0.5-3-1.7-4.3-3.5c-8.4-12-23.2-28-36.9-40.7c-2.3-1.9-3-4.7-2.1-7.1c0.4-1.1,1-2.2,2.1-3.3C244,6.6,247,6,249.6,7
		c0.9,0.3,2,0.9,2.8,1.7C266.5,20.7,281.6,36.6,291.9,50.2z M312.6,101.1c2.4,0.9,4.1,2.8,4.6,5.5c4.8,23.7,5.8,46.6,5.2,70
		c0,1.1-0.2,2.3-0.5,3.2c-1.2,3.4-4.1,5.5-7.1,5.5c-1.7,0-3.3-0.2-4.7-0.6c-3.4-1.2-5.1-4-4.9-7.5c1.8-22.5,0.6-45.5-3.6-68.4
		c-0.2-1.1,0-2.3,0.3-3.3c0.9-2.4,3.2-4.2,6.4-4.7C309.8,100.5,311.4,100.7,312.6,101.1z"/>
	<path class="st4" d="M509.7,210.3l2.3-6.3v-2c-4.4,0-8-3.6-8-8s3.6-8,8-8v-8c-2.6,0-4.9-1.3-6.4-3.2l-10.1,27.8
		c-2,5.5-4.7,6.6-10.9,4.3l-47.9-17.4l19.6-53.9l47.9,17.4c5.8,2.1,7.4,4.6,6,9.3c0.6-0.1,1.2-0.2,1.8-0.2v-8c-4.4,0-8-3.6-8-8
		c0-3.2,1.9-5.9,4.5-7.2l-47.2-17.2l10.1-27.8c1.4-3.8-0.7-6.9-5.2-8.5s-8.5-0.7-9.8,3l-10.1,27.8l-51.1-18.6
		c-12-4.4-19.1-1.4-23.4,10.6l-17.4,47.9c-4.3,11.8-0.9,18.8,11.1,23.2l51.1,18.6l-8,22.1h17l6.1-16.6l45.7,16.6h27
		c-0.2-0.6-0.3-1.3-0.3-2C504,214.4,506.4,211.3,509.7,210.3z M421.6,184l-45.1-16.4c-6.2-2.3-7.6-4.9-5.6-10.3l14.4-39.5
		c1.9-5.3,4.7-6.4,10.9-4.1l45.1,16.4L421.6,184z"/>
</g>
</svg>
