<?xml version="1.0" encoding="utf-8"?>
<!-- Generator: Adobe Illustrator 21.0.0, SVG Export Plug-In . SVG Version: 6.00 Build 0)  -->
<svg version="1.1" id="Layer_1" xmlns="http://www.w3.org/2000/svg" xmlns:xlink="http://www.w3.org/1999/xlink" x="0px" y="0px"
	 viewBox="0 0 205 165" style="enable-background:new 0 0 205 165;" xml:space="preserve">
<style type="text/css">
	.st0{fill:#B7B9BF;}
	.st1{enable-background:new    ;}
</style>
<title>印章_取消</title>
<desc>Created with Sketch.</desc>
<g id="印章_取消" transform="translate(291.000000, 24.000000)">
	<path id="Shape" class="st0" d="M-151.7,10.1c-1.5,0-1.9,0-2.9-0.4c0.4,0.5-1,0-0.4,0.4s2.4,0.4,2.9,1.4
		C-152.6,10.5-151.7,10.5-151.7,10.1z M-151.3,13.4c1,0.4,1.9,0.4,1.9,1.4c0.5-0.4,1-1.4,1-2.3c-1,1.5-1-1.8-2.9-1.4
		c0.4,1,1,1,1.4,1.4C-150.8,12.5-151.3,13-151.3,13.4z M-157.8,7.2c0.4,0,0,1,0.4,1.4c1,0,1.5,0.4,1.9,0.4c0.5,0,0-0.8,1-0.4V7.2
		c-1,0-1-0.8-2.3-0.4v-1c-0.5,0.5-0.5-0.4-1-0.4c0,1,0.4,1,0.4,0.8C-156.9,6.8-157.8,6.3-157.8,7.2z M-231.9,106.5c0,0.4,0,1-1,1
		c-0.4,1,1,0,0.4,1c0.4,0,0-1,1-1c0.4,1-1,1-0.4,1.9c1-0.4,1,0.4,1.4,0.4c0-0.8,0.3-1.3,0.7-1.7C-230.4,107.5-231.1,107-231.9,106.5
		z M-191.7-5h-2.3c0,0.5,0.4,1,0,1h-0.2c0.8,0,1.4,0.4,0.4,0.8c0-0.4,0-0.4-0.4-0.8h-0.2v-0.8c-0.5,0-1.9,0-1.9,0.4
		c-0.8-1-3.7-0.4-4.7,0c0,0.5,0.4,1-0.4,1c-0.8,0,0.5-1-0.4-1c-0.4,0-0.4,1-1.4,1c-1-1.4-3.7-0.4-5.6,0c-0.5,1,0.8,0,0.4,1
		c-1-0.5,0,0.8-1,0.4c0.4-1.4,0,0-1-1c0,0.4,0.4,1.4,0,1.4v-1c-3.3,0-4.2,1.9-7.5,1.9c0.5,0.5-0.4,0.5-0.4,1
		c-4.7,1.9-8.9,4.2-12.2,7.1c0.5,0,1-0.4,1,0c0,1-1,1.4-1,2.3c5.1-2.9,9.9-7.1,16.4-8.5c1-1,2.4-1,2.9-1.9c0,0.4,0,0.4,0.4,0.4
		c1.9-1.4,6.2-1,8.1-2.3c2.3,1,5.5-0.7,8.7-0.4h2.3c0-0.5-1-0.5-1-1C-192.1-4-191.7-4.5-191.7-5L-191.7-5z M-199.8-3.1
		c0.5-1,1.5-0.4,1.9-1C-198.4-3.5-198.9-3.1-199.8-3.1z M-229.5,107.9l-0.2,0.2c0,0,0.1,0,0.1,0.1
		C-229.6,108-229.5,107.9-229.5,107.9z M-178.7-2.5c-1.4-0.4-0.4,1-1.4,1v-1.9c-3.3,0-3.7,0-6.6-1c-0.5,0.5-1,1-1.9,1v-1h-1.4
		c0.5,1,0,0.4,0.8,2c1,0,1.9,1,2.3,0c0.4,1,2.9,0,3.3,1c-0.4-1,1-1.4,1.9-1V-2c-0.4,0-1.4-0.5-1.4,0.4c1.9-0.5,1.9,0.8,3.8,0.4
		C-179.7-2.1-178.7-2.1-178.7-2.5z M-147.1,15.2c-0.4,0-0.4,0-0.4-0.4h-1.4c0,1,0.4,1,0.4,1.4C-147.5,16.2-147.5,15.7-147.1,15.2z
		 M-191.9,93.8c0-0.5-0.4-1-1.4-1C-192.7,93.3-192.7,93.8-191.9,93.8z M-252,113.6c0.4,0.4-0.1,1.4,0.4,1.4
		C-251.6,114.6-251.2,113.6-252,113.6z M-170.3,1.3c0,1,1.5,1.4,2.9,1.4c0-0.5,0-0.5,0.4-1c-0.4,0-0.4,0-0.4-0.4h0.1v-1
		c-1,0.5-2.9-0.4-3.3-1.4c-0.4,0-0.4,0.4-0.4,0.4c0-0.8-1.7-1-2.2-0.3c0.4-1.3-1.7,0.3-3.6-0.2c0-0.4-0.4-0.4,0-1.4
		c-1,0-0.4-0.8-1.4-0.4v2.3c1.4-0.4,2.3,1,3.3,0c0.8,1.9,2.8,1.9,4.7,2.3c0-0.4-0.4-1.4,0-1.4c0,0.4,1,1,1,1.4
		C-170.3,2.2-169.4,0.9-170.3,1.3z M-167.7,1.3c0,0.2,0,0.4-0.2,0.4c0,0-0.4,0-0.4-0.4H-167.7z M-141.5-5.3c-0.4,1.4-1.9,3.8,0,4.2
		c1,0.4,0-1,1-0.4c0.4,1-1,0-0.4,1c1.9,1.4,2.9,3.8,6.2,4.2c0,0.4-1.4-0.4-1,0.4c0.4,0,1,0.4,1,1.4c0.3,0.1,0.4,0.1,0.4,0
		c0.2-0.1,0.3-0.2,0.4-0.2c-0.3,1.5,2.9,1.2,1.6,2c0.4,0,0.4-0.4,1.4,0c0,0-0.4-0.4,0-0.4c0.4,1,0.4,0,1,0c0,0.4,1,1,0.4,2.3h-1v1
		c1,0,1,0,1.9-0.4c0,0.4-0.4,1-1.4,1c1,1,0.4,1,1.4,1.9l4.7-1.4c-0.4,0-1,0.4-1,0v-1c-1-0.4-1.4-1.4-1.9-2.3c-0.4-0.4-0.4,1-1,0
		c0,0,0.4,0,0.4-0.4c-0.4-0.4-1-0.4-1-1c-0.4-0.4-1,1-1.4,0h1c0-0.4-1-1-1-1.9h-1.4V3.3c-3.8-1.9-4.2-6.6-9.4-6.6c0,0,0.4,1,0,1
		c0.4-1-1-1.4,0-1.9c0.4,1,0.4-0.4,1.4,0.4c0-1.4-1.9-2.9-3.3-1.9C-142.5-5.3-141.5-5.7-141.5-5.3L-141.5-5.3z M-145.6,16.3
		c0.4-1-1,0-1-1c0,1-1,0.4-0.4,1.4C-146.1,16.7-146.6,15.9-145.6,16.3z M-164.9,1.7c0,1,0.8,0.4,0.4,1.4h-1c-0.4,0.5,0,0.5,0,1
		c1,0.5,1-0.4,1.4-0.4c0,1,1,1,1.9,1.4c0.5-1-0.8-1-0.4-1.9v-1C-163.6,2.7-164,1.7-164.9,1.7z"/>
	<path id="Shape_1_" class="st0" d="M-175.4,116.2c-1.4,0.9-3.8,0.9-4.7,1.9c-0.4-0.9-1.4,0-1.9,0.4c-2.9-0.9-6.6,0.9-10.4,0.4
		c0,0,0,0.4-0.4,0.4c0-0.4,0.4-0.4,0.4-0.4c-2.9,0-4.7-0.4-6.6,0.4v-0.9c-1.4,0-2.3,0-3.3-0.4c-1,0.4-1,0.9-1,1.4
		c0-0.4-0.4-0.4-0.4-0.4c0.4,0,0.4-0.4,0.4-0.9c-1.4,0-2.3-0.4-3.3-0.9c0,0.4,0.4,0.9,0,0.9c-1-0.9-2.3-1.4-3.3-1.9
		c0,0.4,0.4,0.9,0,0.9c0,0-0.4,0.4-0.4,0c0,0,0.4,0,0.4-0.4c-1.4,0-2.3-0.4-3.8-0.9c-0.4,0,0,0.9-0.4,0.9c0,0-0.4,0.4-0.4,0
		c0.4,0,0.4,0,0.4-0.9c-1-0.4-1.9,0.4-2.9,0c0-0.4,1.4,0.4,1-0.4c-2.9-0.4-3.8-2.8-6.6-3.3c0,0.4-0.4,0.9-1,0.9
		c-0.4-0.9,0.4-0.9,0.4-1.4c-2.4-1.4-4.6-2.9-6.7-4.5c-0.2,0.7,0.1,1.2,0.1,1.7h-1c0.4,0.9,1.4,1.4,2.3,1.9c0.4-0.9-1,0-0.4-0.9h1
		c0,0.9,0.4,1.4,0.4,1.9c0.4,0,0.4-0.4,0.4-0.4c1,1.4,2.3,2.8,5.2,2.8c-0.4,0.4,0,0.4,0,0.9c1,0,1.4,0.4,1.9,0.4
		c0-0.4,1-0.9,1.4-0.4c-0.4,0-0.4,0.4-0.4,1.4c1,0,1.9,0,2.3,0.9c1,0.4,0-0.9,1-0.4c-0.4,0.9,1,0,0.4,0.9c4.3,0.9,9.5,3.8,14.1,2.8
		c0.4,0,0,0.9,1,0.9c1,0,0.4-0.9,1.4-0.9v0.9c1.4-0.4,2.9,0,4.3,0.4c-0.4-0.9,0.4-0.9,0.4-1.4c-0.4,0-1,0.9-1.4,0
		c0.4-0.4,1-0.4,1.4-0.9c0,0.4,1,0,1,0.4v0.4c-1,0-1,0-1,0.9c2.9,0,5.2-0.4,8.9-0.4c0-0.4-0.4-0.9,0-0.9v0.9c1-0.9,3.3-0.4,4.3-1.4
		c0,0,0,0.4,0.4,0.4c3.8-1.4,8.5-1.9,11.4-4.2c1.4,0,3.8-0.4,4.3-1.9c0,0,0,0.4,0.4,0.4c1.8-1.5,4.1-2.3,6-3.7
		c0.3-0.1,0.4-0.1,0.5-0.2c0.5-0.4,1-0.8,1.4-1.4c0.4-0.4-1,0.4-0.4-0.4c1.4,0.4,1.9,0,1.9-0.9c0.4,0,0,0.4,0,0.9
		c1,0,0.4-1.4,2.3-0.9c0.4-0.4-1-0.9,0-1.4c0.3,0.3,0.6,0.4,0.9,0.4l0.1,0.1v-0.1c0.3-0.1,0.5-0.5,0.9-0.8h0.5v-0.4
		c0.2-0.1,0.5-0.1,1-0.1v-0.9c2.3-0.9,3.3-3.3,5.6-4.6c0-1.9,1.9-1.9,1.9-3.8h1c0-0.9,1-2.3,0-3.3c1.4,0.4,1.9-0.4,2.3-0.9
		c3.3-6.1,5.6-10.3,7.5-17.7c-1.4-0.4-1.4,1.4-2.9,0.9c-1.9,8.4-4.3,12.2-8.5,17.7c0,0.9,0.4,2.8,0,3.3c-0.4-0.4-1-0.4-1.9-0.4
		c-3.8,4.6-8.1,9.3-13.2,12.6v0.4c-1.9-0.4-3.3,0.9-4.3,2.3c-3.3,0.4-5.6,3.3-9.5,3.8c0,0.4,0.4,0.9,0,0.9c-1-0.9-3.3,0-3.8,1.4
		C-175.4,117.2-174.6,115.8-175.4,116.2L-175.4,116.2z M-151.3,12.1c0,0-0.2-0.4-0.2-0.8c-0.1,0.3-0.3,0.6-0.3,0.8H-151.3z
		 M-237.1,14.4c0.1-0.2,0.2-0.5,0.3-0.7c-1,0.2-1.1,0.9-1.9,1.4c0,0.4,0.4,1.4,0,1.4c-0.4-1.9-1.4,1.4-2.3,0.9
		c0.4,1.4-2.3,1.9-1,3.3c-1,0.5,0-0.8-1-0.4v1.4c-1.4-0.5-1,1.4-2.3,1.4c0,0.9-0.9,0.9-0.4,1.9c0.5,0,1-0.4,1,0v0.5
		c-1,0-1.5,0.5-1.9,0.9c0,0,0.4-1.4,0-0.9c0,1.4-1,1.4-1.4,2.3c0.4,0,1.4-0.4,1.4,0c-0.4,0-0.4,0-0.4,0.9c4.3-3.8,6.2-8.9,10.4-12.2
		c-0.5-0.5-0.6-0.9-0.5-1.5h0.4c0.1-0.2,0.4-0.4,0.6-0.5c0-0.2,0-0.4-0.1-0.6C-236.3,14.1-236.8,14.1-237.1,14.4L-237.1,14.4z
		 M-145.5-3.9h0.1C-145.3-4-145.5-4-145.5-3.9C-145.5-4-145.5-3.9-145.5-3.9z M-251,114.4v1.4c0.4,0,1-0.4,1-0.9
		C-251,115.3-250,113.9-251,114.4z"/>
	<path id="Shape_2_" class="st0" d="M-151.8,10.3c-0.1,0.1-0.2,0.3-0.2,0.5C-152,10.7-151.8,10.4-151.8,10.3z M-236.8,13.3v-0.2
		c0-0.4-0.4,0-0.4,0s0,0.1-0.1,0.1h0.4L-236.8,13.3z M-265,23c0.1,0,0.1-0.1,0.2-0.1C-264.9,22.9-264.9,22.9-265,23z M-236.7,13.8
		c0,0.4-0.2,0.9-0.2,1.2c0.4-1.1,0.9-1.9,1.2-2.7c-0.1,0-0.1,0-0.2,0.1C-236,13.1-236.4,13.5-236.7,13.8z M-146.4-5
		c0,0.2,0.2,0.3,0.4,0.3C-146-4.8-146.1-5-146.4-5z M-233.1,7.9c-0.5,1,0.9,0,0.4,1c-1,0.5,0-0.9-1-0.4c0,0,0.4,1,0,1h-1
		c0,0.4-0.5,0.4-1,0.4c0.3,1.1,0.1,1.8-0.2,2.7c1.7-0.5,2.3-1.9,3.6-2.2c-0.5-1.4,0.4-1.9,0.4-3.3C-232.7,6.9-232.1,7.9-233.1,7.9z"
		/>
	<path id="Shape_3_" class="st0" d="M-267.1,30c0,0-0.4-0.9,0-1.4c0.4,0-0.4,1.9,0.4,1.4c-0.4-2.3,1-2.3,1-3.8
		c-0.2-0.1-0.3-0.4-0.5-0.8c0.2-0.2,0.3-0.5,0.4-0.8c0.7,0.1,0.3,0.8,1.2,0.4c0.4-0.9-1,0-0.4-0.9c0.3,0.3,0.1-0.4,0.2-0.7
		c-0.1,0.1-0.3,0.1-0.5,0c0.1-0.1,0.2-0.1,0.3-0.1c0-0.4-1-0.9-0.4-1.4c0,0.4,1,0,0.4,0.9c0.4,0.4,0-0.4,0.4-0.4l0.4,0.4
		c-0.2,0-0.3,0.2-0.4,0.3c0,0,0,0.4,0.4,0.4c2.3-4.6,4.7-9.3,8.5-12.6V9.5h1c0-2.3,2.3-1.9,2.9-4.2h1c0.4-1.4,1.9-2.8,3.3-3.8
		c1.9-1.4,2.9-3.2,4.7-3.8c0.4-0.9,1-1.4,1.4-1.9c1.4,0.4,1-0.9,2.3-0.9c1.9-2.8,6.6-3.8,9.4-6.5c7.1-2.3,13.1-6.1,22.1-7
		c0.4-0.4-1-0.4,0-0.9c5.6,0.4,13.1-0.9,20.7-0.4c0-0.4,0-0.9,1-0.4c-0.4,0.4,0.4,0.4,0.4,0.9c1.9-0.4,3.8,0.9,4.7,0
		c1,0.9,3.8,1.9,4.2,0v1.4c1,0,1.9,0,2.3,0.4c0.4-0.9-0.4-0.9-0.4-1.4c1,0.4,0-0.9,1-0.4c0.4,0.9-1,0-0.4,0.9c0.4,0,0.4,0.4,0.4,0.9
		c1.9,0,3.8,0.9,5.2,1.4c0,0,0-0.4,0.4-0.4c-1-0.4,0.4-0.9-0.4-1.9h1c0,0.4,0,0.4,0.4,0.9c-1,0.4-1,0.9-1,2.3c0.4,0.4,0-0.9,0.4-0.9
		c0,0,0.4-0.4,0.4,0c0,0-0.4,0-0.4,0.4c0.4,0,0.4,0,0.4,0.4c0.4,0.4,0.4-0.4,1-0.4v0.9c7.5,2.3,13.1,6.5,19.3,10.3
		c0-0.4,1-0.9,1.4-0.4c-0.3,0-0.1,0.7-0.3,0.9h0.8c0.4-1.4,0.4-3.2,0.4-4.6c-1.4,0.4-1.4-1.4-2.9-0.9c0.4-0.4,0-0.4,0-0.9
		c-5.2-2.8-9.8-5.6-15-8c-0.4,0,0,0.9-1,0.4V-19c-2.3,0-3.8-2.3-6.1-1.4c0.4,0,0.4,0,0.4,0.4c-1,0.4-1.9,0.4-2.9,0.9
		c0-0.9,1-0.4,1-1.4c0.4-0.4-0.4,0.9,0.4,0.4c0-0.4,1,0,0.4-0.9c-3.3-0.9-6.6-1.9-10.4-2.3c0,0.4,0,0.9-0.4,0.9
		c0.4-0.9-1-0.9-1.9-0.9c0,0.4-0.4,0.9-1.4,0.9v-1.4c-2.3-0.4-4.2,1.4-4.7-0.4c-1.4,0.4-1.4,0-2.9,0.4c-1.4-0.9-4.7,0-7.5,0.4
		c0,0.9-1.4,0.4-0.4,1.4c-0.2,0-0.6,0.1-1,0.2v-0.2l-0.2,0.2c-0.2,0-0.3,0-0.3-0.2c0-0.4,1-0.4,0.4-0.9c-3.8-0.4-5.6,0.9-8.9,0.4
		c0.4,0.4-0.4,0.4-0.4,0.9c-1.9-0.4-5.2,0.9-7.1,1.9c-1,0.4,0-0.9-1-0.4c-1.9,0.9-3.8,0.9-5.6,1.9c0,0.4,0.4,0.9,0,0.9
		c-0.4-1.4-1.9,0-2.3,0c0,0.4,0.4,1.4,0,1.4c-0.4,0,0.4-1.9-0.4-1.4l-1,0.9c-12.7,5.1-21.6,13-30.1,22.3c0,0.4,1,0.4,1,0.9
		c-1-0.4,0,0.9-1,0.4c0-0.4,0.4-0.9-0.3-0.9c0.1,0.2,0.2,0.9-0.1,0.9h-0.1c0,0.1-0.1,0.2-0.3,0.4c-0.4,0.4-1.4,0.4-1.4,0.9v0.9
		c-0.4,0-1,0-1.4,0.4c0,0.4,0,1.4-0.4,1.9c-0.4,0.9-0.4,0.4-1,1.4l-1,0.4c0,0.4,0,1.4-0.4,1.9c1,0.4,0-1.4,1-0.9
		c0,0.9-0.4,1.4-0.4,2.3c0,0,0.2,0.4,0.3,0.9h-0.2c0-0.2-0.1-0.4-0.1-0.8h-1.8c-1,1.9-1.4,3.8-2.3,5.1c0.4,0,0.4,1.4,0,1.9
		c0,0,0-0.4-0.4-0.4c0.2,0.2,0.2,0.6,0.4,0.9c-1,0-0.4,2.8-1.9,1.9c0.4-0.9,0.4-1.4,1-2.3h-1c0,0.4,0.4,1.9-0.4,1.9
		c0,0.4,1,0.4,0.4,1.4h-1.4c0.4,0.9-0.4,0.9-0.4,1.4c1-0.4,1,0.4,1.4,0.4c0.4-0.4,0-1.4,1-1.4c-0.4,1.4-0.4,1.9,0,3.2
		c-0.4,0-1.4,0.4-1.4,0c-0.4-0.4,0.4-0.4,0.4-0.9c-1.4,0.4-1-0.4-1.9-0.4c0.4,1.9-0.4,2.3,0,3.8h-1c0,3.2-1.4,5.6-1.9,8.8
		c-0.4,3.2,0,4.2-1,7.4h4.2C-271.8,41.2-269.4,36.5-267.1,30L-267.1,30z M-265.5,23.4c0.1,0.4-0.1,0.5-0.2,0.7
		C-265.7,23.8-265.6,23.6-265.5,23.4z"/>
	<path id="Shape_4_" class="st0" d="M-250,27.5c0,0,0,0.4-0.4,0.4c0,0.5,0.4,1,0.4,1.9h-1.3c-1.4,3.7-3.3,7.1-4.2,11.8h1.4
		c0,0,0-0.4,0.4-0.4c0-0.4-0.4-1.9,0-2.3h0.4c0.5-0.5,0,0.4,1,0.4c0-0.4,0.8-1,0.4-2.3c1.9-1.9,1.9-5.6,3.8-7.5c-1-1,0-0.5,0-1.9
		H-250z M-256,44.5c0.4,0,1.4-0.4,2.3-0.4v-1.9C-255.6,42.1-255.6,44-256,44.5z M-160.5,3.6c0,0.4-0.4,1-0.4,1.4c-1-0.5,0-1.5,0-1.9
		c-1.5,0-1-1.4-2.9-1c0.5,1,1,1,1.5,1.4c-0.5,0.5-1,0.5-1,1c1,0.4,1.4,1,2.3,1.4c0-0.4,0.4-0.4,1.4-0.4c-0.4-1-0.4-0.4,0-1.4
		C-160.5,4.5-159.6,3.1-160.5,3.6L-160.5,3.6z M-245,119.7c0.3,0,0.6-0.2,0.8-0.2c0-0.1,0.1-0.1,0.1-0.2
		C-244.5,118.9-244.5,119.7-245,119.7z M-199.1,141h1c-0.4-1.5,1-1.5,1-1.9C-197.7,138.7-199.1,139.6-199.1,141z M-198.7,137.9
		c-0.3-0.7-0.3-0.3,0-1.3c-1.4-0.4-2.9-0.4-4.7,0c0-0.4-1-1-1.4-1c0,0.4,0.4,1,0,1c-0.4,0-0.4-0.4-0.4-1c-1,0.4-1.9,0.4-2.3,0
		c-0.3,0.6-0.2,1.2-0.2,1.6c0.1,0.8,0.2,1.6-0.3,1.8c1,0.4,1,1.4,2.3,1c0.4-1-1,0-0.4-1c1.4,0,4.2-1,3.3,1v-1c-1,0.4-1,1-1.4,1.4
		c1.9,0,4.2,0.4,4.7-1v1.4c0.4,0,0.4-1.9,0.4-2.9C-198.9,137.9-198.8,137.9-198.7,137.9z M-197.2,137.3c0.4,0.4-0.5,0-0.5,1h1
		C-196.8,137.7-196.8,137.3-197.2,137.3z M-126.2,95.9c-0.4,1,1,0,0.4,1c-0.4,0-0.4,1-1.4,0.4c-0.4,1.4-1,2.9-1,4.7l-0.4-0.4
		c0.4,0,0.4,0,0.4-1c-1,1.4-1.9,2.3-2.9,3.8c-0.4,0.4,1,1,0.4,1.4c0,0-0.4,0-0.4-1c-1,1-1.9,1.9-1.9,3.3c-0.4,0.4-0.4,0-1,0
		c0,0.4,0,1.4-1.4,1.4c-1,1.9-4.2,3.3-3.3,5.2l-1-1v1c-3.3,1-4.7,4.2-8.1,5.6c0,0.2,0.1,0.3,0.2,0.3c-0.7-0.2-1.3,0.5-2.1,0.5v1
		c-4.7,2.9-9.4,4.7-13.7,7.5c-0.4-0.4-2.9,0.4-3.3,1.4c0,0,0-0.4-0.4-0.4c-1.9,1.4-5.2,1.9-8.1,2.3c-0.4,1,0.4,0.4,0.4,1.4
		c-0.4,0-1,0.4-1.4,0c0.4,0,0.4,0,0.4-0.4c-1,0.4,0-1-1-0.4c-1.4,1-4.7,0-5.6,1.4c-1-1-3.3,0-4.2,0c1,1-0.4,1,0,2.3h0.1
		c-0.1,0.2,0.2,0.8-0.5,0.4c0.4-1-1-0.4-1-1c-0.4-0.4,0.4-0.4,0.4-1c-1.4,0-1,2.3-2.9,1.4c0-0.4-0.4-1,0-1c1-0.4,0,1.4,1,1v-2.3
		c-1-0.4-1.4,1-1.9,0c0,1-1.9,0.4-2.3,0.4c0,0.4,0.4,1.4,0,1.4c-0.4-1.4-0.4,1-1,0.4c-0.4-1,1-1,0.4-1.9h-2.3c0,0.4,1.4,0.4,1.4,1
		c0,0,0,1-0.4,1c-0.4,0,0-1-1-0.4c0.4,0.4,1,1.4,0,2.3c0.8,0.1,1.6,0.1,2.3,0.1c-0.2,0.2-0.5,0.4-0.8,0.4c0,0.4,0,1,0.4,1
		c0.3-0.6,1.6-0.6,1.7-1.1c0.3,0,0.6-0.1,1-0.1v1c0.4-0.4,0.4,1,0.4,0c-0.4-0.4,0-0.4,0-1h-0.3c2.1-0.2,3.8-0.5,5.1,0.1
		c1.5-0.3,3.5-0.4,5-0.8c-0.1,0.2-0.3,0.4-0.3,0.8h1c0-0.5,0.1-0.8,0.1-1.1c0.5-0.2,1-0.4,1.3-0.7c0.4,0.4-0.4,0.4-0.4,1
		c1.4-0.4,3.3-0.4,3.8-1.4c0.4,0,0.4,0,0.4,0.4c1,0,1-1,1.9-1c0,0.4,0,1,0.4,1c1-0.4,1.4-1,2.9-1c0-0.4-0.4-1.4,0-1.4
		c0.4,1.4,1.9,0.4,2.9,0.4c0-0.3-0.6-0.6-0.6-1h0.6v0.4c0.1,0,0.2,0,0.3-0.1c0.7-0.1,1.4-0.3,2.1-0.5c0,0.2,0.1,0.3,0.4,0.1
		c0-0.1,0.1-0.2,0.1-0.2c1.7-0.5,3.3-1.2,4.8-1.8c0.2,0.4,0.5,0.5,0.8,0.2V132c1.6-0.7,3.2-1.6,4.7-2.4v0.2h1.4c0-0.3,0.2-1,0.2-1.1
		c0.2-0.1,0.5-0.3,0.7-0.4c0.3,0,0.5-0.2,0.7-0.4c0.6-0.3,1.4-0.6,2.1-1.1c0-0.4-0.4-1,0-1.4c0,0.4,0,1,0.4,1
		c3.3-1.4,5.6-3.8,8.5-5.6c0.4-1-1,0-0.4-1c1-0.4,0,1,1,0.4c0-0.4-0.4-1.4,0-1.4s-0.4,1.4,0.4,1c2.9-3.8,7.1-6.1,9.4-10.4
		c-0.4,0-1,0.4-1,0c0.4,0,0.4-0.4,1-0.4v1c1.4-0.4,1.9-2.3,2.9-3.8c0.4-0.4,1-0.4,1.4-1c0.4-0.4,0-1.4,0.4-1.9
		c0.4-0.4,1.4-1,1.9-1.4c0.4-1,0.4-1.9,1-2.9c0-0.4,1,0,1-0.4v-1l1.4-1.4c0.4-1.4,1-3.3,1.4-4.2c0.4,0,1,0,1-0.4
		c0-0.4-0.4-1.4,0-1.9c0-0.4,1-0.4,1-1v-1.4c0,0,1,0,1-0.4v-1.4c0,0,1-0.4,1-1c0-1.4,0-2.9,0.4-4.2c0,0,1-0.4,1-1
		c0.4-2.9,0.4-6.1,1.4-8.5l-3.8-1C-117.7,80.4-120.5,89.8-126.2,95.9L-126.2,95.9z M-185.2,138c0,0-0.4,0-0.4-1
		c-0.1,0-0.1,0-0.2-0.1c0.3-0.1,0.6-0.2,0.6,0.1C-185.2,137.5-184.8,138-185.2,138z M-152.9,128.8c-0.1,0.1-0.3,0.2-0.4,0.2
		C-153.2,128.9-153,128.8-152.9,128.8z M-252.3,114.2c1,0.4,1-0.4,1.4-0.4v-1h-1C-251.4,113.8-252.3,113.8-252.3,114.2z"/>
	<path id="Shape_5_" class="st0" d="M-212.4,133.7c-3.9-0.4-7.2-1.9-10.5-3.2v0.4c0-0.9-1.4,0-1-0.9c-1,0-1.4,0.4-1.9-0.4
		c-1-0.9-1.9-1.9-3.9-1.9c0,0.4-0.4,0.9-1,0.9c0-0.4,1-0.4,0.4-1.4c-1.4-0.4-2.4-1.9-3.9-2.3l-1,0.9c-0.4-0.4-1-0.4-1.4-0.9
		c0.4-1.9-2.4-2.8-4.3-3.2c0.4-1.4-1.4-0.4-1-1.9c-0.4-0.4-0.4,0.4-1,0.4c0-0.2-0.3-0.2-0.5-0.3c-0.3,0.9,0,2.1-0.9,2.1
		c0.4-0.9-1-0.4-1-0.9v-0.9h1.2c-1-0.4-1-1.4,0-1.9c0-0.9-0.4,0.4-1.4,0.9c-0.4,0.4,1,0.4,0,0.9c0,0,0-0.4-0.4-0.4
		c-0.4,0.4-0.4,1.4-0.4,2.3c1.4,0,1.4,0.9,2.4,1.4c0-0.4,0-0.9,0.4-0.9v1.4c2.4,1.4,4.7,3.2,7.6,4.6c0.4-1.9,1.9,0.9,2.9-0.4
		c0,0.4,0.4,0.4,0.4,0.9c-1,0-1,0.4-1,1.4c1.9-0.4,2.4,0.4,3.3,1.4c0.4-0.4-1-0.9,0-1.4c0.4,0.4,0.4,0.9,0.4,1.9
		c1.9,0.4,3.3,0.9,5.2,1.9c0.4-0.9-1-0.9-1-1.9c1-0.4,0,0.9,1,0.4c0.4-0.4,0.4-0.9,0.4-1.9c0.4,0.4,1.9,1.4,1,2.3c0,0,0-0.4-0.4-0.4
		c0,0.9,0.4,1.4,0.4,1.9c1.9-0.4,1.9,0.4,3.3,0.4c0-0.4,0.4-0.9,0.4-1.4c0,0,0.4,0.4,0.4,1.4h1.4c-0.4,0.9,0,0.9,0,1.4
		c1.1,0.3,2,0.5,3.1,0.8c0.2,0.3,0.3,0.4,0.4,0.4c0.6,0.2,1.2,0.3,1.9,0.5c-0.4-0.9,0.4-1.4,0.4-1.9c0.4,0-0.4,1.4,0.4,0.9
		c0.4-0.9-0.4-0.9-0.4-1.4h1v-1.5c-1,0-1.4,0.4-1.9,0.4C-211.9,134.3-212.4,134.3-212.4,133.7z M-225.8,130.5c0,0-0.4,0.4-0.4,0
		c0-0.3,0.5-0.1,0.5-0.5C-225.5,130.2-225.5,130.5-225.8,130.5z M-197.1,137.7v0.1C-197.1,138.1-196.8,137.6-197.1,137.7z"/>
	<path id="Shape_6_" class="st0" d="M-243,119.4c-0.1,0.2,0,0.3,0,0.4c0-0.1,0-0.1,0.1-0.2C-242.8,119.6-242.8,119.4-243,119.4z
		 M-207.8,136.6c1-1.4,2.9-0.4,0-1.4c0,1.4-0.4,1.9-0.4,2.8c0,0-1.4,0.4-1,0.4c1.4-0.4,1.4,0.9,2.9,0.4c0-0.8,0-1.3,0.3-1.8
		C-206.8,137.4-207.3,136.6-207.8,136.6L-207.8,136.6z M-192.8,33.5c0.2-0.1,0.4-0.1,0.8-0.2V33C-192.5,33.1-192.5,33.4-192.8,33.5z
		 M-197.2,34.6c-0.4,0.4,0,0.8-0.4,0.8c-1-0.3-1.7-0.2-2.6-0.1c0.3,0.6,0.8,1.1,1.1,1.4c0-0.3-0.9-0.7,0-1.2c0.4,1.2,1.6,0.7,2,1.6
		c0.3-0.4,0.8-0.4,1.6-0.4v-0.8c-0.8-0.4-1.2,1.3-1.6,0.4c0.4-0.4,1.2-0.7,1.3-1.5c0,0.1-0.1,0.1-0.1,0.2
		C-195.5,34.2-196.7,34.6-197.2,34.6z"/>
	<path id="Shape_7_" class="st0" d="M-196.8,34.2l0.1-0.1h-0.1V34.2z M-196,33.6c0.2,0,0.4,0,0.5-0.1
		C-195.7,33.5-195.8,33.5-196,33.6z M-194.3,33l-0.2,0.2c0.2,0,0.3-0.1,0.5-0.1C-194.1,33.1-194.2,33-194.3,33z M-202.7,34.6
		c0.2,0.2,0.3,0.4,0.4,0.5c0.3-0.1,0.7-0.2,1.1-0.3c-0.1-0.3-0.2-0.6-0.2-1C-202.2,33.3-202.2,34.1-202.7,34.6z M-265.6,52.7
		c0,0.1-0.1,0.1-0.1,0.2l0.1,0.1c0.1,0,0.2-0.1,0.2-0.2h-0.1v-0.1v-0.2c0-0.3,0.1-0.6,0.4-0.9c0-0.1,0-0.2,0.1-0.3
		c-2.9,0.3-1.3-0.1-2,0.1c0.4,0.6,0.7,1,1.1,1.4H-265.6z"/>
	<path id="Shape_8_" class="st0" d="M-267,52.4c0.2-0.1,0.3-0.1,0.4-0.1l-0.1-0.1l-0.2,0.1C-266.9,52.2-267,52.3-267,52.4z
		 M-231.1,43.4c-3.7,0.8-7.5,2.4-11.5,2.8c-2.9,0.8-6.2,1.6-9.1,2.4c-0.4,0.4,0,0.8-0.4,0.8c-4.2-0.4-7.5,2-11.5,2.4
		c-0.4,0.7,0.4,0.3,0.4,1.1c-0.3,0-1.3,0.2-1.4-0.4c0,0.2-0.2,0.4-0.4,0.8h0.9c0,0.3-0.1,0.5-0.2,0.7c0.2,0,0.4,0,0.6-0.1
		c0-0.4-0.4-0.4-0.4-0.8c1.2-0.3,0.3,1.3,1.6,0.8c0.4-0.7-0.4-0.3-0.4-1.1c1.6,1.1,4.5,0.7,5.3-0.8c0.9,1.1,2-0.4,3.3,0
		c0.4-0.7-0.9-0.3-0.4-1.1h1.3c0,0.4,0,0.8,0.4,0.8c1.6-0.3,2.9-1.1,4.9-1.1c15.6-4.4,31.6-8.4,47.7-12.3c-0.4-0.8,0.9,0,0.4-0.8
		c-0.9-0.4,0,0.8-0.9,0.4v-1.6c-0.4,0-0.6-0.1-0.9-0.3c-1,0.3-1.9,0.6-3,0.6C-213,39-222,41.4-231.1,43.4L-231.1,43.4z M-251.8,50.6
		c0-0.4,0.4-0.4,0.4-0.8C-250.5,49.5-251,51-251.8,50.6z M-265.5,54c0-0.1,0.1-0.1,0.1-0.2c0,0-0.1-0.1-0.1-0.2
		c-0.5,0-1,0.1-1.3,0.2c0.1,0.4,0.3,0.8,0.4,1.3c0.1-0.2,0.3-0.4,0.4-0.6v0.1c0.7,0,1.2-0.1,1.4-0.4c-0.3,0-0.5-0.1-0.7-0.2
		C-265.3,54-265.4,54-265.5,54z"/>
	<path id="Shape_9_" class="st0" d="M-265.9,53.2c0.3-0.2-0.3-0.5-0.3-0.9c-0.2,0.1-0.5,0.1-0.9,0.2l1-0.4c0,0,0.1,0,0.1-0.1
		c-2.9,1.1-6.8,1.2-9,2.7c-0.4,0-0.4-0.4-0.9-0.4c-0.4,0.4,0,0.9-0.4,0.9c-0.9-1.2-2.4,0-2.9,0.9c-0.4,0.4,0.9-0.4,0.9,0.4v0.9h-0.9
		c0.4-1.2-0.9-0.7-0.4-1.6c-1.7,0.7-3.3,0-3.3,1.6c0-0.4,0-1.3-0.9-0.9c0,0.7-0.9,0.7-1.3,1.2c-1.3-1.2-2.1,0.4-3.7,0
		c-0.3,0.3-0.1,0.6-0.2,0.7c0.4,0.1,0.5,0.4,1.2,0.4v0.9c1.3,0.3,0-0.9,0.9-0.9v1.2c0.7,0.2,1.2,0,1.5-0.2c-0.4-0.3-0.4-0.7-0.4-1
		c0.5,0,0.9,0.1,1.1,0.4c0.2-0.2,0.4-0.3,0.7-0.4c0,0.4,0.4,1.7,0.4,0.9c0.4-0.3,0-1.2,0.4-1.2c0.9,0,0.4,0.7,0.4,1.2
		c1.2-0.4,2.4-0.9,4-0.9c0.4-0.3,0.4-0.7,0.9-1.2c0.4,0,0,0.9,0.9,0.9c0.9-0.4,0.9-1.2,1.3-2c0.1,0.1,0.3,0.2,0.4,0.3
		c-0.4,0.3-0.4,0.3-0.4,1.2c0.9-0.4,2.4-0.4,3.7-0.9c0.4-0.4-0.9-0.9,0-0.9c1.6,1.2,2.4-0.9,4.9-2c0.1,0,0.2-0.1,0.3-0.1
		c-0.1-0.1-0.2-0.1-0.3-0.2v-0.3l0.1-0.1h0.9v0.5h0.2C-266.1,53.4-266.1,53.2-265.9,53.2L-265.9,53.2z M-282.3,57.5
		c0.4,0,0.9,0.3,0.9,1.2C-282.2,58.6-281.8,57.5-282.3,57.5z M-279.3,58.6c-0.9,0-0.9-0.4-0.9-0.7h0.9V58.6z M-277.8,55.5
		c0.6-0.3,1.3,0.3,1.9,0.9C-277,56.4-277.4,56.4-277.8,55.5z M-273.6,57c-0.4,0-1.7,0.4-1.3-0.4C-274.4,56.6-273.1,56.2-273.6,57z
		 M-268.5,53.7C-268.5,53.7-268.5,53.6-268.5,53.7c0.2-0.1,0.3-0.1,0.5-0.1C-268.1,53.8-268.2,54.1-268.5,53.7z M-267.2,53
		c-0.2,0-0.5,0.1-1,0.3c0.2-0.3,0.4-0.7,1-0.7V53z M-193.8,33.4c-0.2,0.2-0.4,0.3-0.7,0.5c0.2-0.1,0.4-0.1,0.6-0.2
		C-193.8,33.6-193.8,33.5-193.8,33.4z M-105.2,12c-0.4-0.2-0.9-0.3-0.5-1c-4,0.9-7.3,2.5-12.2,2.9l-3.7,1.2
		c-1.6,0.3-3.1,0.7-4.6,1.2v0.9c-1.2-0.4-0.7,0.9-2,0.4c0.2-0.3,0.3-0.6,0.6-0.9c-1.2,0.3-2.4,0.5-3.7,0.7c0.1,0.1,0.1,0.3-0.1,0.5
		c-0.3,0-0.6,0-0.7-0.4h-0.1c-0.4,0.7,0.9,0.3,0.4,1.2c-0.9,0.3-0.4-0.9-1.3-0.9c-19.9,5-39.4,10.4-58.9,15.5v0.5h-1.3
		c0.9,0.3-0.2,1-0.4,1.6c-1.3,0.3-1-0.6-1.5-1.1c-0.1,0.1-0.2,0.1-0.4,0.2c1.1,0.1,1.1,1.6,1.9,2v-0.7l0.4,0.4
		c0.4-0.3,0-1.2,0.4-1.2c1.6,0.4,2-0.9,2.9,0c0.4-0.7,0.4-0.3,0-1.2h1.3v1.2c0.4-0.1,0.9-0.4,1.4-0.6c-0.3-0.1-1.1,0-1.1-0.6
		c1.3,0.3,1.7-0.4,1.7-0.3c0,0.3-0.6,0.3-0.5,1c1.1-0.4,2.1-0.7,3-0.2c0.4-0.3,0.4-0.7,0.9-1.2c1.7,1.6,3.3-0.9,5.7-0.4
		c15.5-4.9,31.9-9,47.9-13c0.4-1.2,0-1.6-0.4-2c0.4,0,0.4-0.4,0.9-0.4v1.6c7.1-1.3,13.7-3.3,20.7-5.1c0.1,0,0.1,0,0.3-0.1
		c1.7-0.4,3.4-0.9,5.2-1.3l0.1-0.1c-1,0.1-2.2,0.3-3.4,0.4L-105.2,12L-105.2,12z M-111.9,14.3v-0.9h1.3
		C-110.7,13.9-111.5,13.9-111.9,14.3z M-109.3,12.7c0.1,0,0.2,0,0.3,0.1C-109.3,12.7-109.4,12.7-109.3,12.7z M-103,12.1v-0.2
		C-103.1,12-103.1,12.1-103,12.1C-103.1,12.1-103.1,12.1-103,12.1z"/>
	<path id="Shape_10_" class="st0" d="M-196,34.7c0.7,0,0.9-0.5,1.1-0.9c-0.1,0-0.2,0-0.3,0.1C-195.3,34.3-195.7,34.3-196,34.7z
		 M-133.6,17.5c0,0.2,0,0.3,0.1,0.4c0.3,0,0.5-0.1,0.9-0.1C-132.9,17.5-133.3,17.5-133.6,17.5z M-88.9,51.2
		c-2.5-2.8-1.6-8.4-4.1-11.2c1.2-2-1.3-4-0.9-6.4c-1.3-0.4,0,1.2-0.9,1.2c0.4-2.8-0.4-5.7-2.5-6.8c0.9-0.4,0.4,0.4,1.3,0.4
		c-0.7-1.6-0.7-4.4-2-5.6c1.2-2.4-1.3-5.1-1.3-8c-0.4-0.4-0.9,0-0.9-0.4c0.9-1.3-0.4-2.4-0.4-4.4c-0.6,0.1-1.1,0.1-1.5,0.2
		c0.4,0,0.6,0.3,0.6,0.9c-0.9,0-1.3-0.3-1.3-0.8c-0.1,0-0.2,0-0.3,0.1l0.1,0.1c-0.3,0-0.5,0.1-0.5,0.3h0.1v1.6h0.1
		c0-0.4,0-0.7,0.2-0.7c0.4,0.7,0.4,1.2,1.3,1.2c-1.2,0-0.7,2-2,1.2c1.3,4.8,2.5,8.8,3.7,13.6c0.4,0.4,0.9,0,0.9,0.4
		s-0.9,0.7-0.4,1.6c2,4.8,2.9,10.8,4.9,15.2c0.4-0.3,0-1.2,0.4-1.2c0.4,0.4,1.3,0,1.3,0.4s0,0.4-0.4,0.4c0,0.3,1.3,0.7,0.4,1.2
		c-0.9,0,0-1.3-0.9-0.8c-1.3,4.7,2.5,8.7,2.5,13.9c1.3,0.4,0-1.2,0.9-1.2c1.3,0.4,0.9,2,0,2.4c-3.6-1.6-7.4,2.4-12.3,2
		c-0.4,0-0.4,1.2-1.3,1.2c-0.4-0.8,0.9,0,0.4-0.8c-1,0.2-1.3,0.4-1.4,0.5c-0.2,0-0.4-0.1-0.6-0.1c0,0.8-1.2,0.4-1.6,0.4
		c-0.4,0.8,0.9,0,0.4,0.8c-2-0.4-5.8,0.7-7.8,1.6c0-0.8-1.2,0.4-2.5,0c-0.4,0.3,0,1.2-0.4,1.2c-0.4,0,0-1.3-1.3-0.8v0.4
		c-3.3,0-6.2,2.4-8.2,1.6c-1.6,1.3-5.3,1.3-6.9,2.8c-6.6,0.4-11.1,2.4-16.4,3.6c-0.4,0.3,0,1.2-0.4,1.2c-0.9,0-0.4-0.7-0.4-1.2
		c-0.4,0.8-1.2,0-2,0.4c-1.2,0.8-1.6,2.4-2.5,2c0.4-0.4,1.3,0,0.9-0.8c-2,0-3.6,1.7-4.9,0.8c-2.1,1.2-4.2,2-6.6,2
		c-6.2,1.7-11.8,3.7-18,4.8c-0.4,0.4,0,0.8-0.4,0.8c0-0.4-0.7-0.4-1.6-0.4c0,0.8-0.4,1.3-0.9,0.4c0,0.8,0.4,1.6,0.4,2
		c-0.9-0.3-0.4,0.8-0.9,0.8s-0.4-0.4-1.3-0.4c0.3,1.2-1.3,0.3-1.3,1.2c2.5,0.4,4.9-0.7,8.2-1.2c0.4-0.3,0-1.2,0.4-1.2
		c0.4,0,0,0.8,0.9,0.8c14.4-4.1,29.1-7.7,43.5-11.6c0.4-0.4,0-0.8,0.4-0.8c3.7,1.2,7.8-1.6,11.5-2c0.4-0.7-0.4-1.2-0.4-1.6
		c0.9,0,1.3,0.3,1.3,1.2c4.2-0.3,7.8-1.6,11.1-3.1c-0.9,0.3-0.9-0.8-0.4-0.8c0,0.7,1.3,0.3,0.9,1.2c1.2,0,1.2-0.4,2.5-0.4v0.1h5.9
		c9.1-2.4,9.1-3.1,18.4-5.6C-86.9,58.8-88.5,56-88.9,51.2L-88.9,51.2z M-102.5,16.1c0.4,0,0.9,0.3,0.9,1.2
		C-102.5,16.8-102.5,16-102.5,16.1z M-98.4,30.3h0.9c0,0.4-0.9,0.4-1.3,0.8C-99.2,30.3-98,30.8-98.4,30.3z M-97.6,34
		c0.4-1.7-0.7-1.3-0.9-2.4C-98,32-98,32-97.2,32C-97.2,32.9-96.8,34-97.6,34z M-93.1,48.1h0.9v1.2C-92.7,48.8-93.5,48.8-93.1,48.1z
		 M-91.9,51.6c0-0.4-0.4-0.4-0.9-0.4c0-1.2,1.3-0.8,0.9-2h0.9c0,0.3,0,0.7-0.4,1.2h-0.9c0,0.4,0.9,0.4,0.9,0.8c0.9,0,0-1.6,0.9-1.2
		v1.2C-91.4,50.8-91,51.6-91.9,51.6z M-91,54.8c0.4-0.8,0.4-1.6,0.9-1.6C-90.2,53.9-90.6,54.4-91,54.8z M-182,85.5
		c-0.7,0-1.2-0.3-0.7-1.2h0.7V85.5z M-179.2,83.9v-0.8c0.4,0,0.9,0.4,0.9,0.8H-179.2z M-117.3,68.3c0-0.8-1.2-0.8-1.3-1.9
		C-118.4,67.3-117,67.6-117.3,68.3z M-111.2,68c-0.7,0.3-1.2,0-0.9-0.8h0.9V68z M-106,12.3c-0.1,0.1-0.2,0.1-0.4,0.2
		c0.1,0,0.2,0.1,0.3,0.2C-105.8,12.5-105.9,12.4-106,12.3L-106,12.3z"/>
	<path id="Shape_11_" class="st0" d="M-102.6,10.1c0.2,0,0.4-0.1,0.6-0.1C-102.2,10-102.4,10-102.6,10.1z M-127.6,17.5
		c-0.6-0.2-1.1,0-1.4,0.5C-128.6,17.8-128,17.6-127.6,17.5z M-105,11.7c0.4,0.1,0.5,0.6,0.5,1c0.1-0.4,0-0.7,0.1-1.1
		C-104.7,11.5-105,11.5-105,11.7L-105,11.7z M-106,11.3c-0.2,0-0.4,0.1-0.6,0.1c-0.2,0.5,0.2,0.7,0.5,0.8c0.1-0.1,0.3-0.1,0.4-0.2
		C-105.7,11.8-105.8,11.6-106,11.3z"/>
	<path id="Shape_12_" class="st0" d="M-102,9.8l-0.7-0.7c-0.9,0,0,1.2-0.4,0.9c-0.9,0,0-0.4-0.4-0.9c-1.3-0.4-1.3,0.9-2,0.9
		c0,0.5,0.3,0.7,0.5,1c1-0.2,1.5-0.4,1.9-0.5c-0.1,0.1-0.1,0.3-0.1,0.6c0.3,0.1,0.6,0.1,0.6,0.1c0.2-0.2,0.2-0.6,0.3-0.9h-0.5
		C-102.5,10.1-102.7,10-102,9.8L-102,9.8z M-195.3,34.2c-0.2,0.1-0.5,0.1-0.7,0.1c0.2,0,0.3,0.1,0.4,0.1
		C-195.4,34.3-195.4,34.3-195.3,34.2z M-266.3,54.1v-0.3c-0.2,0.1-0.4,0.1-0.6,0.2C-266.8,54-266.5,54.1-266.3,54.1z M-265.7,54.9
		c-0.2,0.3-0.3,0.5-0.3,0.5C-265.6,55.7-265.6,55.3-265.7,54.9z M-288,63.5c0.4-0.4,0-0.9,0.4-0.9h0.4c-0.1,0.1-0.4,0.2-0.4,0.7h0.2
		c0,0.4,0.4,0.4,0.4,0.4c0-0.4,0-0.7-0.1-1.1c0.3,0.1,0.2,0.1-0.1-0.4c-0.1-0.5-0.2-1.2-0.2-2c-0.4,0-0.4-0.9-1.3-0.4
		c-0.4,0.4,0,1.6-0.4,1.6h-0.6c0.2,0.6,0.4,1.3,0.4,2.1h1.3V63.5z M-287,62.7c0-0.1,0-0.2-0.1-0.4C-287,62.5-287,62.6-287,62.7z
		 M-252.3,105.5c11.8-2,22.4-5.6,33.9-8.5c0.4-0.4,0-0.9,0.4-0.9c1.6,0.9,3.3-0.4,4.9-0.4c0.4-0.4,0-0.9,0.4-0.9
		c2.4,0.9,8.2-2,12.6-2.4c0.1-0.1,0.1-0.3,0-0.4c0.2,0.2,1,0,1.3,0c0.4-0.4,0.4-1.6,1.3-2.4c0.4,0,0.4,1.6,0,1.6
		c2.4,0.4,3.3-0.9,5.3-0.9c0.4-0.9-1.3,0-0.9-0.9c-0.9-0.4,0,0.9-0.9,0.4c-0.4-0.9,0.9,0,0.4-0.9c-0.3,0.1-0.6,0.2-0.9,0.3
		c0-1.2,0.9-1.6,1.6-1.9c0.4,1.6,2,0.9,3.7,0.9c-0.3-0.5,0-0.7,0.2-0.6c-0.2-0.4-0.4-1-1.1-1c0,0.4,0,0.4-0.4,0.4
		c-0.4,0.9,0.9,0,0.4,0.9c-0.4-0.4-1.3,0-1.3-0.4s0.4-0.4,0.4-0.9c-2,0.4-3.7,1.2-6.2,1.2c0.4,1.6-2,0.4-0.9,1.6
		c-0.9,0-1.6-0.4-0.9-0.9c-1.3,0-2.9,0.4-2,1.2c0-0.4,0-0.4,0.4-0.4c-0.4,0.4,0,1.2-0.4,1.2c-0.4-0.4-0.9-0.4-1.3-0.9
		c0-0.4,0.4-0.4,0.4-0.9c-1.3-0.4-1.6,0.4-2,0.9c-1.6-0.9-4.5,1.2-6.9,1.2c-0.4,0.4,0,0.9-0.4,0.9c-0.9,0.4-1.3-0.4-1.6-0.4
		c0,1.2-1.6,1.2-2,2c-0.4-0.9,0.4-0.4,0.4-1.2c-0.9,0.4-1.6,1.2-2.4,0.4c-0.4,0.9-1.6,0.9-2.9,0.9c-4.5,1.2-9.4,2.9-14.7,3.6
		c-0.9,0.4,0,0.9-0.4,1.2c0-0.4-0.4-0.9-0.9-0.9c-0.4,0.4,0,0.9-0.4,0.9c0-0.4-0.4-0.4-1.3-0.4c-15.1,4.5-18.4,4-33.9,8.5
		c0.4,0,0.4,0,0.4,0.4c-1.3,0.4-0.9-0.9-2-0.4c-0.4,0.9-0.9,1.6-1.3,2.4c-1.6-1.2,0-2.9-0.9-4.5c-0.4,0.4-1.3,1.2-1.6,0.4
		c0-0.9,0.9-0.4,1.3-0.4v-1.6c-0.4,0-0.4,0.4-0.9,0.4c0.9-2.9-1.3-5.3-1.3-8.5c-0.4-0.4-0.9,0-0.9-0.4s-0.4-0.9-0.4-0.4
		c0.4,1.6-1.3,1.6-1.3,2.9h-0.2l2.4,8.5c0.4,0.4,1.3,0,1.3,0.4c-0.4,0.4,0,0.9-0.4,0.9c-0.4,0-0.4-0.4-0.9-0.4c0,1.6,0,2.9,1.3,3.2
		c-1.3,0.9,0,2,0,2.9c9-2,4-0.4,13.1-2.4l3.7-1.6c2-0.9,4.5-1.6,6.9-2c0-0.9-1.6-0.9-0.9-1.6C-252.7,104.8-252.3,105.2-252.3,105.5
		L-252.3,105.5z M-195.8,88.6c0.4,0.4,1.2,0.4,1.6,0.9c-0.7,0.4-1.4,1-2,1.6C-195.8,89.5-195.8,89.5-195.8,88.6z M-200,91.6
		c-0.1,0.2-0.1,0.3,0,0.4C-200.2,91.7-200.5,91.6-200,91.6z M-284.7,59.8c0-0.3-0.1-0.5-0.2-0.7c-0.2,0.2-0.4,0.4-0.6,0.5
		C-285.3,59.7-285.1,59.8-284.7,59.8z M-187.4,34.7c0-0.1-0.1-0.1-0.1-0.2h-0.1C-187.6,34.5-187.4,34.6-187.4,34.7L-187.4,34.7z
		 M-102.4,13.2c0.2-0.4,0.2-0.9,0.2-1.3c-0.1,0-0.5,0.1-1.2,0.2C-103.4,12.8-103.4,13.4-102.4,13.2z M-289.7,61.4
		c-0.1-0.3-0.2-0.5-0.3-0.9v0.9H-289.7z M-289.5,58.2c0.1,0,0.1,0.1,0.2,0.1c0.1,0,0.1,0,0.2-0.1H-289.5z"/>
	<path id="Shape_13_" class="st0" d="M-290.3,60.7c-0.1-0.9-0.2-1.7,0.5-2.4c-0.2-0.1-0.5-0.3-1.1-0.3
		C-291,59.2-290.7,59.9-290.3,60.7L-290.3,60.7z M-280.1,96.6c0,0.3,0.3,0.4,0.7,0.4l-0.2-0.8C-279.8,96.4-279.9,96.5-280.1,96.6z
		 M-278,92.9c-0.5-4.1-1.4-7.7-3.5-10.6v-0.9c0.2-0.1,0.5-0.2,0.5-0.6h-0.1v-1.6c-0.5,0-0.5,1.2-0.9,0.4c0.9-4.9-2.1-9.8-3.1-14.7
		c-0.9-0.4,0,0.9-0.9,0.4c0-0.9,1.4-2.5,0-2.9v2c-0.5,0-0.5,0.4-0.9,0.4c0-0.9-0.5-0.9-0.9-0.9c-0.5,0.9-0.5,1.6-1.4,0.9
		c0.5,0.9,0.5,1.2,0.5,2.5c0.5,0.4,1.4,0,1.4,0.4c0,0.9-1.4,0-0.9,0.9c1.7,2.5,1.4,7,4,8.6c-0.9,1.2,0.5,4.5,1.4,5.4
		c0,0.4-0.5,0.4-0.5,0.9l3.7,12.8C-278.9,95.4-279,93.6-278,92.9L-278,92.9z"/>
	<g class="st1">
		<path class="st0" d="M-243.8,75l3.1,11.4c0.5,1.7,1.6,2.4,3.4,1.9l19.4-5.2c0.9-0.2,1.6-0.7,2.1-1.3c0.6-0.9,0.4-3.5-0.5-7.8
			l2.9,0.1c0.9,4.9,1,7.9,0.3,9.2c-0.6,1-1.8,1.8-3.4,2.3l-20.9,5.6c-3.1,0.8-5.1-0.4-6-3.5l-5.4-20.3l2.8-0.7l1.5,5.7l21.4-5.7
			l-2.7-10.1l-25.8,6.9l-0.7-2.7l28.6-7.7l4.1,15.5L-243.8,75z"/>
		<path class="st0" d="M-190.1,50.7c1.1-3.1,1.8-6.3,2.3-9.7l3.1,0.2c-0.6,3.1-1.4,6-2.4,8.6l6.5-1.7l3.5,12.9l-5.9,1.6l2.5,9.3
			c0.3,1.2,1,1.7,2,1.4l5.1-1.4c0.7-0.2,1.1-0.5,1.2-1.1c0.2-0.6,0-2.2-0.6-4.8l2.9,0.1c0.7,3.5,0.8,5.6,0.3,6.6
			c-0.4,0.8-1.3,1.3-2.6,1.7l-6.5,1.7c-2.3,0.6-3.8-0.4-4.5-3l-2.6-9.9l-5.8,1.6c1.2,6.8-1.6,12.7-8.7,17.8l-2.2-2
			c6.5-4.4,9.3-9.4,8.3-15.1l-6.5,1.7l-3.5-12.9L-190.1,50.7z M-196,50.8l-2.1,1.9c-2-2.2-3.9-4.2-5.9-5.8l2.1-1.8
			C-200,46.8-198,48.7-196,50.8z M-182.6,51.5l-18.2,4.9l2.1,7.7l18.2-4.9L-182.6,51.5z"/>
		<path class="st0" d="M-159.4,71.1l-1.3-2.5c1-0.2,2-0.3,2.9-0.6c1-0.3,1.4-1,1.1-2.1l-2.5-9.3c-1.4,1-2.8,2-4.2,2.9l-1.4-2.6
			c1.7-1,3.3-2,4.9-3.1l-2.4-9l-4.6,1.2l-0.7-2.7l4.6-1.2l-1.9-7.1l2.8-0.7l1.9,7.1l3.9-1.1l0.7,2.7l-3.9,1.1l2.1,7.9
			c1.2-1,2.4-2,3.5-3.2l0.8,2.8c-1.2,1.1-2.3,2.1-3.6,3.1l3,11.2c0.6,2.3-0.2,3.7-2.4,4.3L-159.4,71.1z M-131.2,48.8l2.4-0.7
			l0.7,2.5l-9.7,2.6c3.1,3.4,7.2,5.6,12.4,6.6l-0.6,3c-5.9-1.5-10.5-4.3-14-8.4c-0.4,4.9-3.1,9.6-8,14.2l-2.4-1.8
			c4.6-3.9,7.1-8,7.7-12.2l-9,2.4l-0.7-2.5l2.7-0.7l-2.8-10.5l8.8-2.4c0.7-1.8,1.4-3.9,1.9-6.3l-6.7,1.8c-1,2.7-2.6,5.3-4.7,7.7
			l-2.2-1.7c3.2-3.6,5-7.4,5.4-11.5l2.8-0.4c-0.1,1.1-0.2,2.1-0.5,3.1l8.2-2.2l0.5,2c-0.5,2.5-1.2,4.8-1.9,6.7l6.8-1.8L-131.2,48.8z
			 M-142.6,51.8c-0.1-2.4-0.6-5.1-1.4-8.3l-5.4,1.4l2.2,8.1L-142.6,51.8z M-133.7,49.4l-2.2-8.1l-5.6,1.5c0.8,3.2,1.3,6,1.5,8.3
			L-133.7,49.4z"/>
	</g>
</g>
</svg>
